<mxfile host="Electron" agent="Mozilla/5.0 (Windows NT 10.0; Win64; x64) AppleWebKit/537.36 (KHTML, like Gecko) draw.io/25.0.2 Chrome/128.0.6613.186 Electron/32.2.5 Safari/537.36" version="25.0.2" pages="3">
  <diagram name="arch" id="rNTYED_7a2Aj9E38WNS2">
    <mxGraphModel dx="5826" dy="1261" grid="1" gridSize="10" guides="1" tooltips="1" connect="1" arrows="1" fold="1" page="1" pageScale="1" pageWidth="3300" pageHeight="4681" math="0" shadow="0">
      <root>
        <mxCell id="0" />
        <mxCell id="1" parent="0" />
        <mxCell id="3QvV6O01AaaEbR5ZJW54-63" value="" style="rounded=1;whiteSpace=wrap;html=1;arcSize=1;fillColor=none;" parent="1" vertex="1">
          <mxGeometry x="-2120" y="3280" width="1520" height="720" as="geometry" />
        </mxCell>
        <mxCell id="HLDd70Ju9NzBNmdh7EJk-54" value="" style="rounded=1;whiteSpace=wrap;html=1;arcSize=1;fontSize=16;fillColor=#f5f5f5;strokeColor=#f5f5f5;fontColor=#333333;labelBackgroundColor=#f5f5f5;" parent="1" vertex="1">
          <mxGeometry x="-2110" y="2050" width="1140" height="640" as="geometry" />
        </mxCell>
        <mxCell id="HLDd70Ju9NzBNmdh7EJk-55" value="" style="rounded=1;whiteSpace=wrap;html=1;arcSize=1;fontSize=16;fillColor=#f9f7ed;strokeColor=#36393d;" parent="1" vertex="1">
          <mxGeometry x="-2100" y="2060" width="600" height="330" as="geometry" />
        </mxCell>
        <mxCell id="HLDd70Ju9NzBNmdh7EJk-56" style="rounded=0;orthogonalLoop=1;jettySize=auto;html=1;entryX=0.25;entryY=0;entryDx=0;entryDy=0;exitX=1;exitY=0.25;exitDx=0;exitDy=0;" parent="1" source="HLDd70Ju9NzBNmdh7EJk-57" target="HLDd70Ju9NzBNmdh7EJk-61" edge="1">
          <mxGeometry relative="1" as="geometry" />
        </mxCell>
        <mxCell id="HLDd70Ju9NzBNmdh7EJk-57" value="Inmates&amp;nbsp;&lt;div&gt;虚拟机镜像&lt;/div&gt;" style="rounded=1;whiteSpace=wrap;html=1;arcSize=4;fontSize=16;fillColor=#d5e8d4;strokeColor=#82b366;" parent="1" vertex="1">
          <mxGeometry x="-2040" y="2100" width="200" height="60" as="geometry" />
        </mxCell>
        <mxCell id="HLDd70Ju9NzBNmdh7EJk-58" value="" style="rounded=1;whiteSpace=wrap;html=1;arcSize=4;fontSize=16;fillColor=#fad9d5;strokeColor=#ae4132;" parent="1" vertex="1">
          <mxGeometry x="-2100" y="2390" width="600" height="100" as="geometry" />
        </mxCell>
        <mxCell id="HLDd70Ju9NzBNmdh7EJk-59" style="edgeStyle=orthogonalEdgeStyle;rounded=0;orthogonalLoop=1;jettySize=auto;html=1;" parent="1" source="HLDd70Ju9NzBNmdh7EJk-61" target="HLDd70Ju9NzBNmdh7EJk-68" edge="1">
          <mxGeometry relative="1" as="geometry" />
        </mxCell>
        <mxCell id="HLDd70Ju9NzBNmdh7EJk-60" value="&lt;span style=&quot;font-size: 14px;&quot;&gt;系统调用&lt;/span&gt;&lt;div style=&quot;font-size: 14px;&quot;&gt;Syscall&lt;/div&gt;" style="edgeLabel;html=1;align=center;verticalAlign=middle;resizable=0;points=[];fontSize=14;labelBackgroundColor=#f9f7ee;" parent="HLDd70Ju9NzBNmdh7EJk-59" vertex="1" connectable="0">
          <mxGeometry x="-0.1823" y="-1" relative="1" as="geometry">
            <mxPoint x="1" as="offset" />
          </mxGeometry>
        </mxCell>
        <mxCell id="HLDd70Ju9NzBNmdh7EJk-61" value="&lt;b&gt;&lt;span style=&quot;background-color: initial;&quot;&gt;用户管理工具&lt;/span&gt;&lt;/b&gt;" style="rounded=1;whiteSpace=wrap;html=1;arcSize=4;fontSize=16;fillColor=#dae8fc;strokeColor=#6c8ebf;" parent="1" vertex="1">
          <mxGeometry x="-1750" y="2230" width="220" height="60" as="geometry" />
        </mxCell>
        <mxCell id="HLDd70Ju9NzBNmdh7EJk-62" style="rounded=0;orthogonalLoop=1;jettySize=auto;html=1;entryX=0.5;entryY=0;entryDx=0;entryDy=0;exitX=0.454;exitY=0.915;exitDx=0;exitDy=0;exitPerimeter=0;" parent="1" source="HLDd70Ju9NzBNmdh7EJk-63" target="HLDd70Ju9NzBNmdh7EJk-61" edge="1">
          <mxGeometry relative="1" as="geometry" />
        </mxCell>
        <mxCell id="HLDd70Ju9NzBNmdh7EJk-63" value="Cell&amp;nbsp;&lt;div style=&quot;font-size: 16px;&quot;&gt;Config&lt;/div&gt;" style="strokeWidth=2;html=1;shape=mxgraph.flowchart.document2;whiteSpace=wrap;size=0.25;fontSize=16;fillColor=#ffe6cc;strokeColor=#d79b00;" parent="1" vertex="1">
          <mxGeometry x="-1740" y="2070" width="80" height="80" as="geometry" />
        </mxCell>
        <mxCell id="HLDd70Ju9NzBNmdh7EJk-64" style="rounded=0;orthogonalLoop=1;jettySize=auto;html=1;entryX=0.5;entryY=0;entryDx=0;entryDy=0;exitX=0.462;exitY=0.919;exitDx=0;exitDy=0;exitPerimeter=0;" parent="1" source="HLDd70Ju9NzBNmdh7EJk-65" target="HLDd70Ju9NzBNmdh7EJk-61" edge="1">
          <mxGeometry relative="1" as="geometry" />
        </mxCell>
        <mxCell id="HLDd70Ju9NzBNmdh7EJk-65" value="Cell&amp;nbsp;&lt;div style=&quot;font-size: 16px;&quot;&gt;Config&lt;/div&gt;" style="strokeWidth=2;html=1;shape=mxgraph.flowchart.document2;whiteSpace=wrap;size=0.25;fontSize=16;fillColor=#ffe6cc;strokeColor=#d79b00;" parent="1" vertex="1">
          <mxGeometry x="-1680" y="2080" width="80" height="80" as="geometry" />
        </mxCell>
        <mxCell id="HLDd70Ju9NzBNmdh7EJk-66" style="rounded=0;orthogonalLoop=1;jettySize=auto;html=1;entryX=0.5;entryY=0;entryDx=0;entryDy=0;exitX=0.265;exitY=0.99;exitDx=0;exitDy=0;exitPerimeter=0;" parent="1" source="HLDd70Ju9NzBNmdh7EJk-67" target="HLDd70Ju9NzBNmdh7EJk-61" edge="1">
          <mxGeometry relative="1" as="geometry" />
        </mxCell>
        <mxCell id="HLDd70Ju9NzBNmdh7EJk-67" value="System&lt;span style=&quot;background-color: initial;&quot;&gt;&amp;nbsp;&lt;/span&gt;&lt;div&gt;&lt;div style=&quot;font-size: 16px;&quot;&gt;Config&lt;/div&gt;&lt;/div&gt;" style="strokeWidth=2;html=1;shape=mxgraph.flowchart.document2;whiteSpace=wrap;size=0.25;fontSize=16;fillColor=#ffe6cc;strokeColor=#d79b00;" parent="1" vertex="1">
          <mxGeometry x="-1620" y="2090" width="80" height="80" as="geometry" />
        </mxCell>
        <mxCell id="HLDd70Ju9NzBNmdh7EJk-68" value="&lt;b&gt;Linux&amp;nbsp;&lt;span style=&quot;background-color: initial;&quot;&gt;Module&lt;/span&gt;&lt;/b&gt;&lt;div&gt;&lt;br&gt;&lt;/div&gt;" style="rounded=1;whiteSpace=wrap;html=1;arcSize=4;fontSize=16;fillColor=#e1d5e7;strokeColor=#9673a6;" parent="1" vertex="1">
          <mxGeometry x="-1750" y="2360" width="220" height="60" as="geometry" />
        </mxCell>
        <mxCell id="HLDd70Ju9NzBNmdh7EJk-69" value="&lt;b&gt;&lt;font style=&quot;font-size: 20px;&quot;&gt;Linux Kernel&lt;/font&gt;&lt;/b&gt;" style="text;html=1;align=center;verticalAlign=middle;whiteSpace=wrap;rounded=0;fontSize=16;" parent="1" vertex="1">
          <mxGeometry x="-1970" y="2420" width="130" height="40" as="geometry" />
        </mxCell>
        <mxCell id="HLDd70Ju9NzBNmdh7EJk-70" value="&lt;b&gt;&lt;font style=&quot;font-size: 20px;&quot;&gt;内存&lt;/font&gt;&lt;/b&gt;" style="rounded=1;whiteSpace=wrap;html=1;arcSize=4;fontSize=16;fillColor=#b1ddf0;strokeColor=#10739e;" parent="1" vertex="1">
          <mxGeometry x="-2100" y="2490" width="1120" height="50" as="geometry" />
        </mxCell>
        <mxCell id="HLDd70Ju9NzBNmdh7EJk-71" style="edgeStyle=orthogonalEdgeStyle;rounded=0;orthogonalLoop=1;jettySize=auto;html=1;" parent="1" source="HLDd70Ju9NzBNmdh7EJk-72" target="HLDd70Ju9NzBNmdh7EJk-61" edge="1">
          <mxGeometry relative="1" as="geometry" />
        </mxCell>
        <mxCell id="HLDd70Ju9NzBNmdh7EJk-72" value="&lt;b&gt;Hypervisor 固件&lt;/b&gt;" style="rounded=1;whiteSpace=wrap;html=1;arcSize=4;fontSize=16;fillColor=#f8cecc;strokeColor=#b85450;" parent="1" vertex="1">
          <mxGeometry x="-2095" y="2220" width="275" height="80" as="geometry" />
        </mxCell>
        <mxCell id="HLDd70Ju9NzBNmdh7EJk-73" style="rounded=0;orthogonalLoop=1;jettySize=auto;html=1;exitX=1;exitY=0.5;exitDx=0;exitDy=0;entryX=0.25;entryY=0;entryDx=0;entryDy=0;" parent="1" source="HLDd70Ju9NzBNmdh7EJk-74" target="HLDd70Ju9NzBNmdh7EJk-61" edge="1">
          <mxGeometry relative="1" as="geometry">
            <mxPoint x="-1650" y="2230" as="targetPoint" />
          </mxGeometry>
        </mxCell>
        <mxCell id="HLDd70Ju9NzBNmdh7EJk-74" value="Inmates&amp;nbsp;&lt;div&gt;虚拟机镜像&lt;/div&gt;" style="rounded=1;whiteSpace=wrap;html=1;arcSize=4;fontSize=16;fillColor=#d5e8d4;strokeColor=#82b366;" parent="1" vertex="1">
          <mxGeometry x="-2020" y="2140" width="200" height="60" as="geometry" />
        </mxCell>
        <mxCell id="HLDd70Ju9NzBNmdh7EJk-75" value="" style="endArrow=none;html=1;rounded=0;strokeWidth=2;" parent="1" edge="1">
          <mxGeometry width="50" height="50" relative="1" as="geometry">
            <mxPoint x="-1471" y="2690" as="sourcePoint" />
            <mxPoint x="-1471" y="2050" as="targetPoint" />
          </mxGeometry>
        </mxCell>
        <mxCell id="HLDd70Ju9NzBNmdh7EJk-76" value="&lt;font style=&quot;font-size: 16px;&quot;&gt;隔&lt;/font&gt;&lt;div&gt;&lt;font style=&quot;font-size: 16px;&quot;&gt;离&lt;/font&gt;&lt;/div&gt;" style="edgeLabel;html=1;align=center;verticalAlign=middle;resizable=0;points=[];labelBackgroundColor=#f5f5f5;" parent="HLDd70Ju9NzBNmdh7EJk-75" vertex="1" connectable="0">
          <mxGeometry x="0.035" relative="1" as="geometry">
            <mxPoint as="offset" />
          </mxGeometry>
        </mxCell>
        <mxCell id="HLDd70Ju9NzBNmdh7EJk-77" value="CPU 1" style="rounded=1;whiteSpace=wrap;html=1;arcSize=4;fontSize=16;fillColor=#bac8d3;strokeColor=#23445d;" parent="1" vertex="1">
          <mxGeometry x="-2100" y="2570" width="80" height="40" as="geometry" />
        </mxCell>
        <mxCell id="HLDd70Ju9NzBNmdh7EJk-78" value="CPU 2" style="rounded=1;whiteSpace=wrap;html=1;arcSize=4;fontSize=16;fillColor=#bac8d3;strokeColor=#23445d;" parent="1" vertex="1">
          <mxGeometry x="-1980" y="2570" width="80" height="40" as="geometry" />
        </mxCell>
        <mxCell id="HLDd70Ju9NzBNmdh7EJk-79" value="CPU 3" style="rounded=1;whiteSpace=wrap;html=1;arcSize=4;fontSize=16;fillColor=#bac8d3;strokeColor=#23445d;" parent="1" vertex="1">
          <mxGeometry x="-1860" y="2570" width="80" height="40" as="geometry" />
        </mxCell>
        <mxCell id="HLDd70Ju9NzBNmdh7EJk-80" value="CPU 4" style="rounded=1;whiteSpace=wrap;html=1;arcSize=4;fontSize=16;fillColor=#bac8d3;strokeColor=#23445d;" parent="1" vertex="1">
          <mxGeometry x="-1740" y="2570" width="80" height="40" as="geometry" />
        </mxCell>
        <mxCell id="HLDd70Ju9NzBNmdh7EJk-81" value="CPU 5" style="rounded=1;whiteSpace=wrap;html=1;arcSize=4;fontSize=16;fillColor=#bac8d3;strokeColor=#23445d;" parent="1" vertex="1">
          <mxGeometry x="-1620" y="2570" width="80" height="40" as="geometry" />
        </mxCell>
        <mxCell id="HLDd70Ju9NzBNmdh7EJk-82" value="CPU 6" style="rounded=1;whiteSpace=wrap;html=1;arcSize=4;fontSize=16;fillColor=#bac8d3;strokeColor=#23445d;" parent="1" vertex="1">
          <mxGeometry x="-1420" y="2570" width="80" height="40" as="geometry" />
        </mxCell>
        <mxCell id="HLDd70Ju9NzBNmdh7EJk-83" value="CPU 7" style="rounded=1;whiteSpace=wrap;html=1;arcSize=4;fontSize=16;fillColor=#bac8d3;strokeColor=#23445d;" parent="1" vertex="1">
          <mxGeometry x="-1300" y="2570" width="80" height="40" as="geometry" />
        </mxCell>
        <mxCell id="HLDd70Ju9NzBNmdh7EJk-84" value="CPU 8" style="rounded=1;whiteSpace=wrap;html=1;arcSize=4;fontSize=16;fillColor=#bac8d3;strokeColor=#23445d;" parent="1" vertex="1">
          <mxGeometry x="-1109" y="2570" width="80" height="40" as="geometry" />
        </mxCell>
        <mxCell id="HLDd70Ju9NzBNmdh7EJk-85" value="" style="endArrow=none;html=1;rounded=0;strokeWidth=2;" parent="1" edge="1">
          <mxGeometry width="50" height="50" relative="1" as="geometry">
            <mxPoint x="-1180" y="2690" as="sourcePoint" />
            <mxPoint x="-1180" y="2050" as="targetPoint" />
          </mxGeometry>
        </mxCell>
        <mxCell id="HLDd70Ju9NzBNmdh7EJk-86" value="&lt;font style=&quot;font-size: 16px;&quot;&gt;隔&lt;/font&gt;&lt;div&gt;&lt;font style=&quot;font-size: 16px;&quot;&gt;离&lt;/font&gt;&lt;/div&gt;" style="edgeLabel;html=1;align=center;verticalAlign=middle;resizable=0;points=[];labelBackgroundColor=#f5f5f5;" parent="HLDd70Ju9NzBNmdh7EJk-85" vertex="1" connectable="0">
          <mxGeometry x="0.0404" relative="1" as="geometry">
            <mxPoint as="offset" />
          </mxGeometry>
        </mxCell>
        <mxCell id="HLDd70Ju9NzBNmdh7EJk-87" value="&lt;font style=&quot;font-size: 20px;&quot;&gt;用户空间&lt;/font&gt;" style="text;html=1;align=center;verticalAlign=middle;whiteSpace=wrap;rounded=0;fontSize=16;fontStyle=1" parent="1" vertex="1">
          <mxGeometry x="-1970" y="2330" width="130" height="30" as="geometry" />
        </mxCell>
        <mxCell id="HLDd70Ju9NzBNmdh7EJk-88" value="Hypervisor" style="rounded=1;whiteSpace=wrap;html=1;arcSize=4;fontSize=16;fillColor=#b1ddf0;strokeColor=#10739e;" parent="1" vertex="1">
          <mxGeometry x="-2020" y="2490" width="280" height="50" as="geometry" />
        </mxCell>
        <mxCell id="HLDd70Ju9NzBNmdh7EJk-89" value="镜像" style="rounded=1;whiteSpace=wrap;html=1;arcSize=4;fontSize=16;fillColor=#b1ddf0;strokeColor=#10739e;" parent="1" vertex="1">
          <mxGeometry x="-1370" y="2490" width="95.83" height="50" as="geometry" />
        </mxCell>
        <mxCell id="HLDd70Ju9NzBNmdh7EJk-90" value="镜像" style="rounded=1;whiteSpace=wrap;html=1;arcSize=4;fontSize=16;fillColor=#b1ddf0;strokeColor=#10739e;" parent="1" vertex="1">
          <mxGeometry x="-1102" y="2490" width="100" height="50" as="geometry" />
        </mxCell>
        <mxCell id="HLDd70Ju9NzBNmdh7EJk-91" value="共享内存" style="rounded=1;whiteSpace=wrap;html=1;arcSize=4;fontSize=16;fillColor=#b1ddf0;strokeColor=#10739e;dashed=1;textOpacity=80;" parent="1" vertex="1">
          <mxGeometry x="-1730" y="2490" width="40" height="50" as="geometry" />
        </mxCell>
        <mxCell id="HLDd70Ju9NzBNmdh7EJk-92" value="共享内存" style="rounded=1;whiteSpace=wrap;html=1;arcSize=4;fontSize=16;fillColor=#b1ddf0;strokeColor=#10739e;dashed=1;textOpacity=80;" parent="1" vertex="1">
          <mxGeometry x="-1445" y="2490" width="40" height="50" as="geometry" />
        </mxCell>
        <mxCell id="HLDd70Ju9NzBNmdh7EJk-93" value="共享内存" style="rounded=1;whiteSpace=wrap;html=1;arcSize=4;fontSize=16;fillColor=#b1ddf0;strokeColor=#10739e;dashed=1;textOpacity=80;" parent="1" vertex="1">
          <mxGeometry x="-1230" y="2490" width="40" height="50" as="geometry" />
        </mxCell>
        <mxCell id="HLDd70Ju9NzBNmdh7EJk-94" value="共享内存" style="rounded=1;whiteSpace=wrap;html=1;arcSize=4;fontSize=16;fillColor=#b1ddf0;strokeColor=#10739e;dashed=1;textOpacity=80;" parent="1" vertex="1">
          <mxGeometry x="-1170" y="2490" width="40" height="50" as="geometry" />
        </mxCell>
        <mxCell id="HLDd70Ju9NzBNmdh7EJk-95" style="edgeStyle=orthogonalEdgeStyle;rounded=0;orthogonalLoop=1;jettySize=auto;html=1;entryX=0.411;entryY=0.015;entryDx=0;entryDy=0;entryPerimeter=0;" parent="1" source="HLDd70Ju9NzBNmdh7EJk-68" target="HLDd70Ju9NzBNmdh7EJk-70" edge="1">
          <mxGeometry relative="1" as="geometry" />
        </mxCell>
        <mxCell id="HLDd70Ju9NzBNmdh7EJk-96" value="&lt;span style=&quot;font-size: 14px;&quot;&gt;超级调用&lt;/span&gt;&lt;div style=&quot;font-size: 14px;&quot;&gt;Hypercall&lt;/div&gt;" style="edgeLabel;html=1;align=center;verticalAlign=middle;resizable=0;points=[];fontSize=14;labelBackgroundColor=#f7d9d6;" parent="HLDd70Ju9NzBNmdh7EJk-95" vertex="1" connectable="0">
          <mxGeometry x="-0.2465" relative="1" as="geometry">
            <mxPoint as="offset" />
          </mxGeometry>
        </mxCell>
        <mxCell id="HLDd70Ju9NzBNmdh7EJk-97" value="Device 1" style="rounded=1;whiteSpace=wrap;html=1;arcSize=4;fontSize=16;fillColor=#bac8d3;strokeColor=#23445d;" parent="1" vertex="1">
          <mxGeometry x="-2040" y="2630" width="140" height="40" as="geometry" />
        </mxCell>
        <mxCell id="HLDd70Ju9NzBNmdh7EJk-98" value="Device 2" style="rounded=1;whiteSpace=wrap;html=1;arcSize=4;fontSize=16;fillColor=#bac8d3;strokeColor=#23445d;" parent="1" vertex="1">
          <mxGeometry x="-1780" y="2630" width="140" height="40" as="geometry" />
        </mxCell>
        <mxCell id="HLDd70Ju9NzBNmdh7EJk-99" value="Device 3" style="rounded=1;whiteSpace=wrap;html=1;arcSize=4;fontSize=16;fillColor=#bac8d3;strokeColor=#23445d;" parent="1" vertex="1">
          <mxGeometry x="-1390" y="2630" width="140" height="40" as="geometry" />
        </mxCell>
        <mxCell id="HLDd70Ju9NzBNmdh7EJk-100" value="Device 4" style="rounded=1;whiteSpace=wrap;html=1;arcSize=4;fontSize=16;fillColor=#bac8d3;strokeColor=#23445d;" parent="1" vertex="1">
          <mxGeometry x="-1139" y="2630" width="140" height="40" as="geometry" />
        </mxCell>
        <mxCell id="HLDd70Ju9NzBNmdh7EJk-104" value="&lt;span style=&quot;font-size: 20px;&quot;&gt;RTOS&lt;/span&gt;" style="text;html=1;align=center;verticalAlign=middle;whiteSpace=wrap;rounded=0;fontSize=16;fontStyle=1" parent="1" vertex="1">
          <mxGeometry x="-1420.0000000000002" y="2200" width="170" height="120" as="geometry" />
        </mxCell>
        <mxCell id="HLDd70Ju9NzBNmdh7EJk-105" value="&lt;span style=&quot;font-size: 20px;&quot;&gt;BareMetal&lt;/span&gt;" style="text;html=1;align=center;verticalAlign=middle;whiteSpace=wrap;rounded=0;fontSize=16;fontStyle=1" parent="1" vertex="1">
          <mxGeometry x="-1169" y="2200" width="170" height="120" as="geometry" />
        </mxCell>
        <mxCell id="HLDd70Ju9NzBNmdh7EJk-106" value="&lt;span style=&quot;font-size: 14px; text-wrap: nowrap;&quot;&gt;&lt;font color=&quot;#0000ff&quot;&gt;/dev/jailhouse&lt;/font&gt;&lt;/span&gt;" style="text;html=1;align=center;verticalAlign=middle;whiteSpace=wrap;rounded=0;" parent="1" vertex="1">
          <mxGeometry x="-1627.5" y="2330" width="95" height="30" as="geometry" />
        </mxCell>
        <mxCell id="2mQYzaRuxB6IcJXZLTx1-15" style="edgeStyle=orthogonalEdgeStyle;rounded=0;orthogonalLoop=1;jettySize=auto;html=1;fontSize=21;" parent="1" source="2mQYzaRuxB6IcJXZLTx1-2" target="2mQYzaRuxB6IcJXZLTx1-13" edge="1">
          <mxGeometry relative="1" as="geometry" />
        </mxCell>
        <mxCell id="2mQYzaRuxB6IcJXZLTx1-2" value="Blog&lt;div&gt;&lt;span style=&quot;color: rgb(0, 0, 255); font-size: 12px;&quot;&gt;/blog&lt;/span&gt;&lt;br&gt;&lt;/div&gt;" style="rounded=1;whiteSpace=wrap;html=1;fontSize=21;fillColor=#fff2cc;strokeColor=#d6b656;" parent="1" vertex="1">
          <mxGeometry x="-2000" y="2980" width="120" height="60" as="geometry" />
        </mxCell>
        <mxCell id="2mQYzaRuxB6IcJXZLTx1-16" style="edgeStyle=orthogonalEdgeStyle;rounded=0;orthogonalLoop=1;jettySize=auto;html=1;fontSize=21;" parent="1" source="2mQYzaRuxB6IcJXZLTx1-3" target="2mQYzaRuxB6IcJXZLTx1-10" edge="1">
          <mxGeometry relative="1" as="geometry" />
        </mxCell>
        <mxCell id="2mQYzaRuxB6IcJXZLTx1-3" value="&lt;span style=&quot;font-size: 21px;&quot;&gt;Pages&lt;/span&gt;&lt;div&gt;&lt;span style=&quot;color: rgb(0, 0, 255); font-size: 12px;&quot;&gt;/src/pages&lt;/span&gt;&lt;span style=&quot;font-size: 21px;&quot;&gt;&lt;br&gt;&lt;/span&gt;&lt;/div&gt;" style="rounded=1;whiteSpace=wrap;html=1;fontSize=21;fontStyle=0;fillColor=#e1d5e7;strokeColor=#9673a6;" parent="1" vertex="1">
          <mxGeometry x="-2000" y="3120" width="120" height="60" as="geometry" />
        </mxCell>
        <mxCell id="2mQYzaRuxB6IcJXZLTx1-12" style="edgeStyle=orthogonalEdgeStyle;rounded=0;orthogonalLoop=1;jettySize=auto;html=1;entryX=0;entryY=0.5;entryDx=0;entryDy=0;fontSize=21;" parent="1" source="2mQYzaRuxB6IcJXZLTx1-4" target="2mQYzaRuxB6IcJXZLTx1-11" edge="1">
          <mxGeometry relative="1" as="geometry">
            <Array as="points">
              <mxPoint x="-1850" y="2870" />
              <mxPoint x="-1850" y="2820" />
            </Array>
          </mxGeometry>
        </mxCell>
        <mxCell id="2mQYzaRuxB6IcJXZLTx1-14" style="edgeStyle=orthogonalEdgeStyle;rounded=0;orthogonalLoop=1;jettySize=auto;html=1;fontSize=21;" parent="1" source="2mQYzaRuxB6IcJXZLTx1-4" target="2mQYzaRuxB6IcJXZLTx1-6" edge="1">
          <mxGeometry relative="1" as="geometry">
            <Array as="points">
              <mxPoint x="-1850" y="2870" />
              <mxPoint x="-1850" y="2920" />
            </Array>
          </mxGeometry>
        </mxCell>
        <mxCell id="2mQYzaRuxB6IcJXZLTx1-4" value="Docs&lt;div&gt;&lt;span style=&quot;color: rgb(0, 0, 255); font-size: 12px;&quot;&gt;/docs&lt;/span&gt;&lt;br&gt;&lt;/div&gt;" style="rounded=1;whiteSpace=wrap;html=1;fontSize=21;fillColor=#dae8fc;strokeColor=#6c8ebf;" parent="1" vertex="1">
          <mxGeometry x="-2000" y="2840" width="120" height="60" as="geometry" />
        </mxCell>
        <mxCell id="2mQYzaRuxB6IcJXZLTx1-6" value="Community&lt;div&gt;&lt;span style=&quot;color: rgb(0, 0, 255); font-size: 12px;&quot;&gt;/community&lt;/span&gt;&lt;br&gt;&lt;/div&gt;" style="rounded=1;whiteSpace=wrap;html=1;fontSize=21;fillColor=#dae8fc;strokeColor=#6c8ebf;" parent="1" vertex="1">
          <mxGeometry x="-1830" y="2890" width="120" height="60" as="geometry" />
        </mxCell>
        <mxCell id="2mQYzaRuxB6IcJXZLTx1-17" style="edgeStyle=orthogonalEdgeStyle;rounded=0;orthogonalLoop=1;jettySize=auto;html=1;entryX=0;entryY=0.5;entryDx=0;entryDy=0;fontSize=21;" parent="1" source="2mQYzaRuxB6IcJXZLTx1-9" target="2mQYzaRuxB6IcJXZLTx1-4" edge="1">
          <mxGeometry relative="1" as="geometry" />
        </mxCell>
        <mxCell id="2mQYzaRuxB6IcJXZLTx1-18" style="edgeStyle=orthogonalEdgeStyle;rounded=0;orthogonalLoop=1;jettySize=auto;html=1;fontSize=21;" parent="1" source="2mQYzaRuxB6IcJXZLTx1-9" target="2mQYzaRuxB6IcJXZLTx1-2" edge="1">
          <mxGeometry relative="1" as="geometry" />
        </mxCell>
        <mxCell id="2mQYzaRuxB6IcJXZLTx1-19" style="edgeStyle=orthogonalEdgeStyle;rounded=0;orthogonalLoop=1;jettySize=auto;html=1;entryX=0;entryY=0.5;entryDx=0;entryDy=0;fontSize=21;" parent="1" source="2mQYzaRuxB6IcJXZLTx1-9" target="2mQYzaRuxB6IcJXZLTx1-3" edge="1">
          <mxGeometry relative="1" as="geometry" />
        </mxCell>
        <mxCell id="2mQYzaRuxB6IcJXZLTx1-9" value="docusaurus" style="rounded=1;whiteSpace=wrap;html=1;fontSize=21;fillColor=#d5e8d4;strokeColor=#82b366;" parent="1" vertex="1">
          <mxGeometry x="-2190" y="2980" width="120" height="60" as="geometry" />
        </mxCell>
        <mxCell id="2mQYzaRuxB6IcJXZLTx1-10" value="主页&lt;div&gt;&lt;span style=&quot;color: rgb(0, 0, 255); font-size: 12px;&quot;&gt;/src/pages&lt;/span&gt;&lt;br&gt;&lt;/div&gt;" style="rounded=1;whiteSpace=wrap;html=1;fontSize=21;fillColor=#e1d5e7;strokeColor=#9673a6;" parent="1" vertex="1">
          <mxGeometry x="-1830" y="3120" width="120" height="60" as="geometry" />
        </mxCell>
        <mxCell id="2mQYzaRuxB6IcJXZLTx1-11" value="Document&lt;div&gt;&lt;span style=&quot;color: rgb(0, 0, 255); font-size: 12px;&quot;&gt;/docs&lt;/span&gt;&lt;br&gt;&lt;/div&gt;" style="rounded=1;whiteSpace=wrap;html=1;fontSize=21;fillColor=#dae8fc;strokeColor=#6c8ebf;" parent="1" vertex="1">
          <mxGeometry x="-1830" y="2790" width="120" height="60" as="geometry" />
        </mxCell>
        <mxCell id="2mQYzaRuxB6IcJXZLTx1-13" value="Blog&lt;div&gt;&lt;span style=&quot;color: rgb(0, 0, 255); font-size: 12px;&quot;&gt;/blog&lt;/span&gt;&lt;br&gt;&lt;/div&gt;" style="rounded=1;whiteSpace=wrap;html=1;fontSize=21;fillColor=#fff2cc;strokeColor=#d6b656;" parent="1" vertex="1">
          <mxGeometry x="-1830" y="2980" width="120" height="60" as="geometry" />
        </mxCell>
        <mxCell id="3QvV6O01AaaEbR5ZJW54-53" style="edgeStyle=entityRelationEdgeStyle;rounded=0;orthogonalLoop=1;jettySize=auto;html=1;" parent="1" source="3QvV6O01AaaEbR5ZJW54-11" target="3QvV6O01AaaEbR5ZJW54-51" edge="1">
          <mxGeometry relative="1" as="geometry" />
        </mxCell>
        <mxCell id="3QvV6O01AaaEbR5ZJW54-54" style="edgeStyle=entityRelationEdgeStyle;rounded=0;orthogonalLoop=1;jettySize=auto;html=1;" parent="1" source="3QvV6O01AaaEbR5ZJW54-11" target="3QvV6O01AaaEbR5ZJW54-52" edge="1">
          <mxGeometry relative="1" as="geometry" />
        </mxCell>
        <mxCell id="3QvV6O01AaaEbR5ZJW54-55" style="edgeStyle=entityRelationEdgeStyle;rounded=0;orthogonalLoop=1;jettySize=auto;html=1;" parent="1" source="3QvV6O01AaaEbR5ZJW54-11" target="3QvV6O01AaaEbR5ZJW54-50" edge="1">
          <mxGeometry relative="1" as="geometry" />
        </mxCell>
        <mxCell id="3QvV6O01AaaEbR5ZJW54-57" style="edgeStyle=entityRelationEdgeStyle;rounded=0;orthogonalLoop=1;jettySize=auto;html=1;entryX=0;entryY=0.5;entryDx=0;entryDy=0;" parent="1" source="3QvV6O01AaaEbR5ZJW54-11" target="3QvV6O01AaaEbR5ZJW54-56" edge="1">
          <mxGeometry relative="1" as="geometry" />
        </mxCell>
        <mxCell id="3QvV6O01AaaEbR5ZJW54-11" value="arceos-hypervisor.github.io&lt;div&gt;&lt;span style=&quot;color: rgb(0, 0, 255); font-size: 16px; background-color: initial;&quot;&gt;https://github.com/arceos-hypervisor/arceos-hypervisor.github.io&lt;/span&gt;&lt;br&gt;&lt;/div&gt;" style="rounded=1;whiteSpace=wrap;html=1;fontSize=21;fillColor=#d5e8d4;strokeColor=#82b366;arcSize=3;" parent="1" vertex="1">
          <mxGeometry x="-1520" y="3720" width="320" height="80" as="geometry" />
        </mxCell>
        <mxCell id="3QvV6O01AaaEbR5ZJW54-47" style="edgeStyle=entityRelationEdgeStyle;rounded=0;orthogonalLoop=1;jettySize=auto;html=1;" parent="1" source="3QvV6O01AaaEbR5ZJW54-23" target="3QvV6O01AaaEbR5ZJW54-45" edge="1">
          <mxGeometry relative="1" as="geometry" />
        </mxCell>
        <mxCell id="3QvV6O01AaaEbR5ZJW54-48" style="edgeStyle=entityRelationEdgeStyle;rounded=0;orthogonalLoop=1;jettySize=auto;html=1;" parent="1" source="3QvV6O01AaaEbR5ZJW54-23" target="3QvV6O01AaaEbR5ZJW54-46" edge="1">
          <mxGeometry relative="1" as="geometry" />
        </mxCell>
        <mxCell id="3QvV6O01AaaEbR5ZJW54-49" style="edgeStyle=entityRelationEdgeStyle;rounded=0;orthogonalLoop=1;jettySize=auto;html=1;" parent="1" source="3QvV6O01AaaEbR5ZJW54-23" target="3QvV6O01AaaEbR5ZJW54-44" edge="1">
          <mxGeometry relative="1" as="geometry" />
        </mxCell>
        <mxCell id="3QvV6O01AaaEbR5ZJW54-23" value="&lt;div&gt;axvisor-images&lt;/div&gt;&lt;div&gt;&lt;font color=&quot;#0000ff&quot;&gt;&lt;span style=&quot;font-size: 16px;&quot;&gt;https://github.com/arceos-hypervisor/axvisor-images&lt;/span&gt;&lt;/font&gt;&lt;br&gt;&lt;/div&gt;" style="rounded=1;whiteSpace=wrap;html=1;fontSize=21;fillColor=#d5e8d4;strokeColor=#82b366;arcSize=3;" parent="1" vertex="1">
          <mxGeometry x="-1520" y="3560" width="320" height="80" as="geometry" />
        </mxCell>
        <mxCell id="3QvV6O01AaaEbR5ZJW54-39" style="edgeStyle=entityRelationEdgeStyle;rounded=0;orthogonalLoop=1;jettySize=auto;html=1;" parent="1" source="3QvV6O01AaaEbR5ZJW54-24" target="3QvV6O01AaaEbR5ZJW54-35" edge="1">
          <mxGeometry relative="1" as="geometry" />
        </mxCell>
        <mxCell id="3QvV6O01AaaEbR5ZJW54-40" style="edgeStyle=entityRelationEdgeStyle;rounded=0;orthogonalLoop=1;jettySize=auto;html=1;" parent="1" source="3QvV6O01AaaEbR5ZJW54-24" target="3QvV6O01AaaEbR5ZJW54-36" edge="1">
          <mxGeometry relative="1" as="geometry" />
        </mxCell>
        <mxCell id="3QvV6O01AaaEbR5ZJW54-41" style="edgeStyle=entityRelationEdgeStyle;rounded=0;orthogonalLoop=1;jettySize=auto;html=1;" parent="1" source="3QvV6O01AaaEbR5ZJW54-24" target="3QvV6O01AaaEbR5ZJW54-38" edge="1">
          <mxGeometry relative="1" as="geometry" />
        </mxCell>
        <mxCell id="3QvV6O01AaaEbR5ZJW54-42" style="edgeStyle=entityRelationEdgeStyle;rounded=0;orthogonalLoop=1;jettySize=auto;html=1;" parent="1" source="3QvV6O01AaaEbR5ZJW54-24" target="3QvV6O01AaaEbR5ZJW54-37" edge="1">
          <mxGeometry relative="1" as="geometry" />
        </mxCell>
        <mxCell id="3QvV6O01AaaEbR5ZJW54-24" value="&lt;div&gt;axvisor-buildroot&lt;br&gt;&lt;/div&gt;&lt;div&gt;&lt;font color=&quot;#0000ff&quot;&gt;&lt;span style=&quot;font-size: 16px;&quot;&gt;https://github.com/arceos-hypervisor/axvisor-buildroot&lt;/span&gt;&lt;/font&gt;&lt;br&gt;&lt;/div&gt;" style="rounded=1;whiteSpace=wrap;html=1;fontSize=21;fillColor=#d5e8d4;strokeColor=#82b366;arcSize=3;" parent="1" vertex="1">
          <mxGeometry x="-1520" y="3400" width="320" height="80" as="geometry" />
        </mxCell>
        <mxCell id="3QvV6O01AaaEbR5ZJW54-29" style="edgeStyle=entityRelationEdgeStyle;rounded=0;orthogonalLoop=1;jettySize=auto;html=1;entryX=0;entryY=0.5;entryDx=0;entryDy=0;" parent="1" source="3QvV6O01AaaEbR5ZJW54-25" target="3QvV6O01AaaEbR5ZJW54-26" edge="1">
          <mxGeometry relative="1" as="geometry" />
        </mxCell>
        <mxCell id="3QvV6O01AaaEbR5ZJW54-30" style="edgeStyle=entityRelationEdgeStyle;rounded=0;orthogonalLoop=1;jettySize=auto;html=1;" parent="1" source="3QvV6O01AaaEbR5ZJW54-25" target="3QvV6O01AaaEbR5ZJW54-27" edge="1">
          <mxGeometry relative="1" as="geometry" />
        </mxCell>
        <mxCell id="3QvV6O01AaaEbR5ZJW54-31" style="edgeStyle=entityRelationEdgeStyle;rounded=0;orthogonalLoop=1;jettySize=auto;html=1;entryX=0;entryY=0.5;entryDx=0;entryDy=0;" parent="1" source="3QvV6O01AaaEbR5ZJW54-25" target="3QvV6O01AaaEbR5ZJW54-28" edge="1">
          <mxGeometry relative="1" as="geometry" />
        </mxCell>
        <mxCell id="hH2JWxC8rSkukghX7l9r-6" style="edgeStyle=entityRelationEdgeStyle;rounded=0;orthogonalLoop=1;jettySize=auto;html=1;entryX=0;entryY=0.5;entryDx=0;entryDy=0;" edge="1" parent="1" source="3QvV6O01AaaEbR5ZJW54-25" target="hH2JWxC8rSkukghX7l9r-1">
          <mxGeometry relative="1" as="geometry" />
        </mxCell>
        <mxCell id="3QvV6O01AaaEbR5ZJW54-25" value="&lt;div&gt;AxVisor&lt;/div&gt;&lt;div&gt;&lt;font color=&quot;#0000ff&quot;&gt;&lt;span style=&quot;font-size: 16px;&quot;&gt;https://github.com/arceos-hypervisor/AxVisor&lt;/span&gt;&lt;/font&gt;&lt;br&gt;&lt;/div&gt;" style="rounded=1;whiteSpace=wrap;html=1;fontSize=21;fillColor=#d5e8d4;strokeColor=#82b366;arcSize=3;" parent="1" vertex="1">
          <mxGeometry x="-2100" y="3640" width="260" height="80" as="geometry" />
        </mxCell>
        <mxCell id="3QvV6O01AaaEbR5ZJW54-32" style="edgeStyle=orthogonalEdgeStyle;rounded=0;orthogonalLoop=1;jettySize=auto;html=1;" parent="1" source="3QvV6O01AaaEbR5ZJW54-26" target="3QvV6O01AaaEbR5ZJW54-24" edge="1">
          <mxGeometry relative="1" as="geometry" />
        </mxCell>
        <mxCell id="3QvV6O01AaaEbR5ZJW54-26" value="&lt;div&gt;构建系统&lt;/div&gt;" style="rounded=1;whiteSpace=wrap;html=1;fontSize=21;fillColor=#d5e8d4;strokeColor=#82b366;arcSize=3;" parent="1" vertex="1">
          <mxGeometry x="-1720" y="3400" width="120" height="80" as="geometry" />
        </mxCell>
        <mxCell id="3QvV6O01AaaEbR5ZJW54-33" style="edgeStyle=orthogonalEdgeStyle;rounded=0;orthogonalLoop=1;jettySize=auto;html=1;" parent="1" source="3QvV6O01AaaEbR5ZJW54-27" target="3QvV6O01AaaEbR5ZJW54-23" edge="1">
          <mxGeometry relative="1" as="geometry" />
        </mxCell>
        <mxCell id="3QvV6O01AaaEbR5ZJW54-27" value="&lt;div&gt;预构建镜像&lt;/div&gt;" style="rounded=1;whiteSpace=wrap;html=1;fontSize=21;fillColor=#d5e8d4;strokeColor=#82b366;arcSize=3;" parent="1" vertex="1">
          <mxGeometry x="-1720" y="3560" width="120" height="80" as="geometry" />
        </mxCell>
        <mxCell id="3QvV6O01AaaEbR5ZJW54-34" style="edgeStyle=orthogonalEdgeStyle;rounded=0;orthogonalLoop=1;jettySize=auto;html=1;" parent="1" source="3QvV6O01AaaEbR5ZJW54-28" target="3QvV6O01AaaEbR5ZJW54-11" edge="1">
          <mxGeometry relative="1" as="geometry" />
        </mxCell>
        <mxCell id="3QvV6O01AaaEbR5ZJW54-28" value="&lt;div&gt;文档&lt;/div&gt;" style="rounded=1;whiteSpace=wrap;html=1;fontSize=21;fillColor=#d5e8d4;strokeColor=#82b366;arcSize=3;" parent="1" vertex="1">
          <mxGeometry x="-1720" y="3720" width="120" height="80" as="geometry" />
        </mxCell>
        <mxCell id="3QvV6O01AaaEbR5ZJW54-35" value="&lt;font color=&quot;#2b9920&quot;&gt;【已完成】&lt;/font&gt;支持飞腾派开发板" style="text;html=1;align=left;verticalAlign=middle;whiteSpace=wrap;rounded=0;fontSize=16;" parent="1" vertex="1">
          <mxGeometry x="-1080" y="3360" width="240" height="40" as="geometry" />
        </mxCell>
        <mxCell id="3QvV6O01AaaEbR5ZJW54-36" value="&lt;font color=&quot;#2b9920&quot;&gt;【已完成】&lt;/font&gt;支持树莓派 4B 开发板" style="text;html=1;align=left;verticalAlign=middle;whiteSpace=wrap;rounded=0;fontSize=16;" parent="1" vertex="1">
          <mxGeometry x="-1080" y="3400" width="250" height="40" as="geometry" />
        </mxCell>
        <mxCell id="3QvV6O01AaaEbR5ZJW54-37" value="&lt;font color=&quot;#2b9920&quot;&gt;【已完成】&lt;/font&gt;中英文 README" style="text;html=1;align=left;verticalAlign=middle;whiteSpace=wrap;rounded=0;fontSize=16;" parent="1" vertex="1">
          <mxGeometry x="-1080" y="3480" width="210.75" height="40" as="geometry" />
        </mxCell>
        <mxCell id="3QvV6O01AaaEbR5ZJW54-38" value="&lt;font color=&quot;#2b9920&quot;&gt;【已完成】&lt;/font&gt;集成 ArceOS 一键构建，并支持以上开发板" style="text;html=1;align=left;verticalAlign=middle;whiteSpace=wrap;rounded=0;fontSize=16;" parent="1" vertex="1">
          <mxGeometry x="-1080" y="3440" width="400" height="40" as="geometry" />
        </mxCell>
        <mxCell id="3QvV6O01AaaEbR5ZJW54-44" value="&lt;font color=&quot;#2b9920&quot;&gt;【已完成】&lt;/font&gt;中英文 README" style="text;html=1;align=left;verticalAlign=middle;whiteSpace=wrap;rounded=0;fontSize=16;" parent="1" vertex="1">
          <mxGeometry x="-1080" y="3620" width="210" height="40" as="geometry" />
        </mxCell>
        <mxCell id="3QvV6O01AaaEbR5ZJW54-45" value="&lt;font color=&quot;#2b9920&quot;&gt;【已完成】&lt;/font&gt;ArceOS 镜像" style="text;html=1;align=left;verticalAlign=middle;whiteSpace=wrap;rounded=0;fontSize=16;" parent="1" vertex="1">
          <mxGeometry x="-1080" y="3540" width="210" height="40" as="geometry" />
        </mxCell>
        <mxCell id="3QvV6O01AaaEbR5ZJW54-46" value="&lt;font color=&quot;#ff3333&quot;&gt;【待处理】&lt;/font&gt;Linux 镜像（&lt;font color=&quot;#ff3333&quot;&gt;由于免费账号限制，无法上传过大文件&lt;/font&gt;）" style="text;html=1;align=left;verticalAlign=middle;whiteSpace=wrap;rounded=0;fontSize=16;" parent="1" vertex="1">
          <mxGeometry x="-1080" y="3580" width="470" height="40" as="geometry" />
        </mxCell>
        <mxCell id="3QvV6O01AaaEbR5ZJW54-50" value="&lt;font color=&quot;#2b9920&quot;&gt;【已完成】&lt;/font&gt;中英文 README" style="text;html=1;align=left;verticalAlign=middle;whiteSpace=wrap;rounded=0;fontSize=16;" parent="1" vertex="1">
          <mxGeometry x="-1080" y="3800" width="280" height="40" as="geometry" />
        </mxCell>
        <mxCell id="3QvV6O01AaaEbR5ZJW54-51" value="&lt;font color=&quot;#ff3333&quot;&gt;【待更新】&lt;/font&gt;首页内容。（&lt;font color=&quot;#ff3333&quot;&gt;设计 LOGO、图片更新、内容更新&lt;/font&gt;）" style="text;html=1;align=left;verticalAlign=middle;whiteSpace=wrap;rounded=0;fontSize=16;" parent="1" vertex="1">
          <mxGeometry x="-1080" y="3720" width="440.75" height="40" as="geometry" />
        </mxCell>
        <mxCell id="3QvV6O01AaaEbR5ZJW54-52" value="&lt;font color=&quot;#ff3333&quot;&gt;【待添加】&lt;/font&gt;文档内容。" style="text;html=1;align=left;verticalAlign=middle;whiteSpace=wrap;rounded=0;fontSize=16;" parent="1" vertex="1">
          <mxGeometry x="-1080" y="3760" width="430" height="40" as="geometry" />
        </mxCell>
        <mxCell id="3QvV6O01AaaEbR5ZJW54-56" value="&lt;font color=&quot;#2b9920&quot;&gt;【已完成】&lt;/font&gt;在线托管。地址：&lt;font color=&quot;#0000ff&quot;&gt;https://arceos-hypervisor.github.io/&lt;/font&gt;" style="text;html=1;align=left;verticalAlign=middle;whiteSpace=wrap;rounded=0;fontSize=16;" parent="1" vertex="1">
          <mxGeometry x="-1080" y="3680" width="420.75" height="40" as="geometry" />
        </mxCell>
        <mxCell id="3QvV6O01AaaEbR5ZJW54-59" value="" style="endArrow=none;dashed=1;html=1;rounded=0;" parent="1" edge="1">
          <mxGeometry width="50" height="50" relative="1" as="geometry">
            <mxPoint x="-1780" y="4000" as="sourcePoint" />
            <mxPoint x="-1780" y="3280" as="targetPoint" />
          </mxGeometry>
        </mxCell>
        <mxCell id="3QvV6O01AaaEbR5ZJW54-60" value="" style="endArrow=none;dashed=1;html=1;rounded=0;" parent="1" edge="1">
          <mxGeometry width="50" height="50" relative="1" as="geometry">
            <mxPoint x="-1560" y="4000" as="sourcePoint" />
            <mxPoint x="-1560" y="3280" as="targetPoint" />
          </mxGeometry>
        </mxCell>
        <mxCell id="3QvV6O01AaaEbR5ZJW54-61" value="" style="endArrow=none;dashed=1;html=1;rounded=0;" parent="1" edge="1">
          <mxGeometry width="50" height="50" relative="1" as="geometry">
            <mxPoint x="-1140" y="4000" as="sourcePoint" />
            <mxPoint x="-1139" y="3280" as="targetPoint" />
          </mxGeometry>
        </mxCell>
        <mxCell id="3QvV6O01AaaEbR5ZJW54-64" value="" style="endArrow=none;dashed=1;html=1;rounded=0;" parent="1" edge="1">
          <mxGeometry width="50" height="50" relative="1" as="geometry">
            <mxPoint x="-2120" y="3340" as="sourcePoint" />
            <mxPoint x="-600" y="3340" as="targetPoint" />
          </mxGeometry>
        </mxCell>
        <mxCell id="3QvV6O01AaaEbR5ZJW54-65" value="汇总仓库" style="text;html=1;align=center;verticalAlign=middle;whiteSpace=wrap;rounded=0;fontStyle=1;fontSize=24;" parent="1" vertex="1">
          <mxGeometry x="-2040" y="3280" width="180" height="60" as="geometry" />
        </mxCell>
        <mxCell id="3QvV6O01AaaEbR5ZJW54-66" value="内容" style="text;html=1;align=center;verticalAlign=middle;whiteSpace=wrap;rounded=0;fontStyle=1;fontSize=24;" parent="1" vertex="1">
          <mxGeometry x="-1760" y="3280" width="180" height="60" as="geometry" />
        </mxCell>
        <mxCell id="3QvV6O01AaaEbR5ZJW54-67" value="各子仓库" style="text;html=1;align=center;verticalAlign=middle;whiteSpace=wrap;rounded=0;fontStyle=1;fontSize=24;" parent="1" vertex="1">
          <mxGeometry x="-1440" y="3280" width="180" height="60" as="geometry" />
        </mxCell>
        <mxCell id="3QvV6O01AaaEbR5ZJW54-68" value="计划工作内容" style="text;html=1;align=center;verticalAlign=middle;whiteSpace=wrap;rounded=0;fontStyle=1;fontSize=24;" parent="1" vertex="1">
          <mxGeometry x="-949.62" y="3280" width="180" height="60" as="geometry" />
        </mxCell>
        <mxCell id="vcvyNpsmPgxVQ--55jNY-1" value="" style="rounded=1;whiteSpace=wrap;html=1;arcSize=1;fillColor=none;" parent="1" vertex="1">
          <mxGeometry x="-2120" y="4080" width="960" height="540" as="geometry" />
        </mxCell>
        <mxCell id="vcvyNpsmPgxVQ--55jNY-6" value="arceos-hypervisor.github.io&lt;div&gt;&lt;span style=&quot;color: rgb(0, 0, 255); font-size: 16px; background-color: initial;&quot;&gt;https://github.com/arceos-hypervisor/arceos-hypervisor.github.io&lt;/span&gt;&lt;br&gt;&lt;/div&gt;" style="rounded=1;whiteSpace=wrap;html=1;fontSize=21;fillColor=#d5e8d4;strokeColor=#82b366;arcSize=3;" parent="1" vertex="1">
          <mxGeometry x="-1520" y="4400" width="320" height="80" as="geometry" />
        </mxCell>
        <mxCell id="vcvyNpsmPgxVQ--55jNY-10" value="&lt;div&gt;axvisor-images&lt;/div&gt;&lt;div&gt;&lt;font color=&quot;#0000ff&quot;&gt;&lt;span style=&quot;font-size: 16px;&quot;&gt;https://github.com/arceos-hypervisor/axvisor-images&lt;/span&gt;&lt;/font&gt;&lt;br&gt;&lt;/div&gt;" style="rounded=1;whiteSpace=wrap;html=1;fontSize=21;fillColor=#d5e8d4;strokeColor=#82b366;arcSize=3;" parent="1" vertex="1">
          <mxGeometry x="-1520" y="4280" width="320" height="80" as="geometry" />
        </mxCell>
        <mxCell id="vcvyNpsmPgxVQ--55jNY-15" value="&lt;div&gt;axvisor-buildroot&lt;br&gt;&lt;/div&gt;&lt;div&gt;&lt;font color=&quot;#0000ff&quot;&gt;&lt;span style=&quot;font-size: 16px;&quot;&gt;https://github.com/arceos-hypervisor/axvisor-buildroot&lt;/span&gt;&lt;/font&gt;&lt;br&gt;&lt;/div&gt;" style="rounded=1;whiteSpace=wrap;html=1;fontSize=21;fillColor=#d5e8d4;strokeColor=#82b366;arcSize=3;" parent="1" vertex="1">
          <mxGeometry x="-1520" y="4160" width="320" height="80" as="geometry" />
        </mxCell>
        <mxCell id="vcvyNpsmPgxVQ--55jNY-16" style="edgeStyle=entityRelationEdgeStyle;rounded=0;orthogonalLoop=1;jettySize=auto;html=1;entryX=0;entryY=0.5;entryDx=0;entryDy=0;" parent="1" source="vcvyNpsmPgxVQ--55jNY-19" target="vcvyNpsmPgxVQ--55jNY-21" edge="1">
          <mxGeometry relative="1" as="geometry" />
        </mxCell>
        <mxCell id="vcvyNpsmPgxVQ--55jNY-17" style="edgeStyle=entityRelationEdgeStyle;rounded=0;orthogonalLoop=1;jettySize=auto;html=1;" parent="1" source="vcvyNpsmPgxVQ--55jNY-19" target="vcvyNpsmPgxVQ--55jNY-23" edge="1">
          <mxGeometry relative="1" as="geometry" />
        </mxCell>
        <mxCell id="vcvyNpsmPgxVQ--55jNY-18" style="edgeStyle=entityRelationEdgeStyle;rounded=0;orthogonalLoop=1;jettySize=auto;html=1;entryX=0;entryY=0.5;entryDx=0;entryDy=0;" parent="1" source="vcvyNpsmPgxVQ--55jNY-19" target="vcvyNpsmPgxVQ--55jNY-25" edge="1">
          <mxGeometry relative="1" as="geometry" />
        </mxCell>
        <mxCell id="hH2JWxC8rSkukghX7l9r-4" style="edgeStyle=entityRelationEdgeStyle;rounded=0;orthogonalLoop=1;jettySize=auto;html=1;entryX=0;entryY=0.5;entryDx=0;entryDy=0;" edge="1" parent="1" source="vcvyNpsmPgxVQ--55jNY-19" target="hH2JWxC8rSkukghX7l9r-3">
          <mxGeometry relative="1" as="geometry" />
        </mxCell>
        <mxCell id="vcvyNpsmPgxVQ--55jNY-19" value="&lt;div&gt;AxVisor&lt;/div&gt;&lt;div&gt;&lt;font color=&quot;#0000ff&quot;&gt;&lt;span style=&quot;font-size: 16px;&quot;&gt;https://github.com/arceos-hypervisor/AxVisor&lt;/span&gt;&lt;/font&gt;&lt;br&gt;&lt;/div&gt;" style="rounded=1;whiteSpace=wrap;html=1;fontSize=21;fillColor=#d5e8d4;strokeColor=#82b366;arcSize=3;" parent="1" vertex="1">
          <mxGeometry x="-2100" y="4340" width="260" height="80" as="geometry" />
        </mxCell>
        <mxCell id="vcvyNpsmPgxVQ--55jNY-20" style="edgeStyle=orthogonalEdgeStyle;rounded=0;orthogonalLoop=1;jettySize=auto;html=1;" parent="1" source="vcvyNpsmPgxVQ--55jNY-21" target="vcvyNpsmPgxVQ--55jNY-15" edge="1">
          <mxGeometry relative="1" as="geometry" />
        </mxCell>
        <mxCell id="vcvyNpsmPgxVQ--55jNY-21" value="&lt;div&gt;构建系统&lt;/div&gt;" style="rounded=1;whiteSpace=wrap;html=1;fontSize=21;fillColor=#d5e8d4;strokeColor=#82b366;arcSize=3;" parent="1" vertex="1">
          <mxGeometry x="-1720" y="4160" width="120" height="80" as="geometry" />
        </mxCell>
        <mxCell id="vcvyNpsmPgxVQ--55jNY-22" style="edgeStyle=orthogonalEdgeStyle;rounded=0;orthogonalLoop=1;jettySize=auto;html=1;" parent="1" source="vcvyNpsmPgxVQ--55jNY-23" target="vcvyNpsmPgxVQ--55jNY-10" edge="1">
          <mxGeometry relative="1" as="geometry" />
        </mxCell>
        <mxCell id="vcvyNpsmPgxVQ--55jNY-23" value="&lt;div&gt;预构建镜像&lt;/div&gt;" style="rounded=1;whiteSpace=wrap;html=1;fontSize=21;fillColor=#d5e8d4;strokeColor=#82b366;arcSize=3;" parent="1" vertex="1">
          <mxGeometry x="-1720" y="4280" width="120" height="80" as="geometry" />
        </mxCell>
        <mxCell id="vcvyNpsmPgxVQ--55jNY-24" style="edgeStyle=orthogonalEdgeStyle;rounded=0;orthogonalLoop=1;jettySize=auto;html=1;" parent="1" source="vcvyNpsmPgxVQ--55jNY-25" target="vcvyNpsmPgxVQ--55jNY-6" edge="1">
          <mxGeometry relative="1" as="geometry" />
        </mxCell>
        <mxCell id="vcvyNpsmPgxVQ--55jNY-25" value="&lt;div&gt;文档&lt;/div&gt;" style="rounded=1;whiteSpace=wrap;html=1;fontSize=21;fillColor=#d5e8d4;strokeColor=#82b366;arcSize=3;" parent="1" vertex="1">
          <mxGeometry x="-1720" y="4400" width="120" height="80" as="geometry" />
        </mxCell>
        <mxCell id="vcvyNpsmPgxVQ--55jNY-37" value="" style="endArrow=none;dashed=1;html=1;rounded=0;" parent="1" edge="1">
          <mxGeometry width="50" height="50" relative="1" as="geometry">
            <mxPoint x="-1780" y="4620" as="sourcePoint" />
            <mxPoint x="-1780" y="4080" as="targetPoint" />
          </mxGeometry>
        </mxCell>
        <mxCell id="vcvyNpsmPgxVQ--55jNY-38" value="" style="endArrow=none;dashed=1;html=1;rounded=0;" parent="1" edge="1">
          <mxGeometry width="50" height="50" relative="1" as="geometry">
            <mxPoint x="-1560" y="4620" as="sourcePoint" />
            <mxPoint x="-1560" y="4080" as="targetPoint" />
          </mxGeometry>
        </mxCell>
        <mxCell id="vcvyNpsmPgxVQ--55jNY-40" value="" style="endArrow=none;dashed=1;html=1;rounded=0;fontColor=#CC6600;" parent="1" edge="1">
          <mxGeometry width="50" height="50" relative="1" as="geometry">
            <mxPoint x="-2120" y="4140" as="sourcePoint" />
            <mxPoint x="-1160" y="4140" as="targetPoint" />
          </mxGeometry>
        </mxCell>
        <mxCell id="vcvyNpsmPgxVQ--55jNY-41" value="汇总仓库" style="text;html=1;align=center;verticalAlign=middle;whiteSpace=wrap;rounded=0;fontStyle=1;fontSize=24;fontColor=#CC6600;" parent="1" vertex="1">
          <mxGeometry x="-2040" y="4080" width="180" height="60" as="geometry" />
        </mxCell>
        <mxCell id="vcvyNpsmPgxVQ--55jNY-42" value="内容" style="text;html=1;align=center;verticalAlign=middle;whiteSpace=wrap;rounded=0;fontStyle=1;fontSize=24;fontColor=#CC6600;" parent="1" vertex="1">
          <mxGeometry x="-1760" y="4080" width="180" height="60" as="geometry" />
        </mxCell>
        <mxCell id="vcvyNpsmPgxVQ--55jNY-43" value="各子仓库" style="text;html=1;align=center;verticalAlign=middle;whiteSpace=wrap;rounded=0;fontStyle=1;fontSize=24;fontColor=#CC6600;" parent="1" vertex="1">
          <mxGeometry x="-1440" y="4080" width="180" height="60" as="geometry" />
        </mxCell>
        <mxCell id="hH2JWxC8rSkukghX7l9r-8" style="edgeStyle=orthogonalEdgeStyle;rounded=0;orthogonalLoop=1;jettySize=auto;html=1;" edge="1" parent="1" source="hH2JWxC8rSkukghX7l9r-1" target="hH2JWxC8rSkukghX7l9r-2">
          <mxGeometry relative="1" as="geometry" />
        </mxCell>
        <mxCell id="hH2JWxC8rSkukghX7l9r-1" value="&lt;div&gt;SDK&lt;/div&gt;" style="rounded=1;whiteSpace=wrap;html=1;fontSize=21;fillColor=#f8cecc;strokeColor=#b85450;arcSize=3;" vertex="1" parent="1">
          <mxGeometry x="-1720" y="3880" width="120" height="80" as="geometry" />
        </mxCell>
        <mxCell id="hH2JWxC8rSkukghX7l9r-2" value="&lt;div&gt;暂无&lt;/div&gt;" style="rounded=1;whiteSpace=wrap;html=1;fontSize=21;fillColor=#f8cecc;strokeColor=#b85450;arcSize=3;" vertex="1" parent="1">
          <mxGeometry x="-1520" y="3880" width="320" height="80" as="geometry" />
        </mxCell>
        <mxCell id="hH2JWxC8rSkukghX7l9r-7" style="edgeStyle=orthogonalEdgeStyle;rounded=0;orthogonalLoop=1;jettySize=auto;html=1;" edge="1" parent="1" source="hH2JWxC8rSkukghX7l9r-3" target="hH2JWxC8rSkukghX7l9r-5">
          <mxGeometry relative="1" as="geometry" />
        </mxCell>
        <mxCell id="hH2JWxC8rSkukghX7l9r-3" value="&lt;div&gt;SDK&lt;/div&gt;" style="rounded=1;whiteSpace=wrap;html=1;fontSize=21;fillColor=#f8cecc;strokeColor=#b85450;arcSize=3;" vertex="1" parent="1">
          <mxGeometry x="-1720" y="4520" width="120" height="80" as="geometry" />
        </mxCell>
        <mxCell id="hH2JWxC8rSkukghX7l9r-5" value="&lt;div&gt;暂无&lt;/div&gt;" style="rounded=1;whiteSpace=wrap;html=1;fontSize=21;fillColor=#f8cecc;strokeColor=#b85450;arcSize=3;" vertex="1" parent="1">
          <mxGeometry x="-1520" y="4520" width="320" height="80" as="geometry" />
        </mxCell>
      </root>
    </mxGraphModel>
  </diagram>
  <diagram id="YR0zTo-BNob8kFIGs5fE" name="arceos_arch">
    <mxGraphModel dx="2526" dy="1261" grid="1" gridSize="10" guides="1" tooltips="1" connect="1" arrows="1" fold="1" page="1" pageScale="1" pageWidth="3300" pageHeight="4681" math="0" shadow="0">
      <root>
        <mxCell id="0" />
        <mxCell id="1" parent="0" />
        <mxCell id="nYhCQIgboDFs1SWjqIxP-1" value="ArceOS modules" style="rounded=1;whiteSpace=wrap;html=1;fillColor=none;strokeColor=#b85450;strokeWidth=1;verticalAlign=top;fontStyle=1;fontSize=14;fontColor=#B85450;" vertex="1" parent="1">
          <mxGeometry x="530" y="505" width="500" height="130" as="geometry" />
        </mxCell>
        <mxCell id="nYhCQIgboDFs1SWjqIxP-2" value="ArceOS crates" style="rounded=1;whiteSpace=wrap;html=1;fillColor=none;strokeColor=#9673a6;strokeWidth=1;verticalAlign=bottom;fontStyle=1;fontSize=14;spacingBottom=4;fontColor=#9673A6;" vertex="1" parent="1">
          <mxGeometry x="530" y="645" width="500" height="150" as="geometry" />
        </mxCell>
        <mxCell id="nYhCQIgboDFs1SWjqIxP-3" value="User Apps" style="rounded=1;whiteSpace=wrap;html=1;strokeWidth=1;fontStyle=1;fontSize=14;verticalAlign=top;fillColor=none;strokeColor=#999999;fontColor=#666666;" vertex="1" parent="1">
          <mxGeometry x="570" y="200" width="420" height="80" as="geometry" />
        </mxCell>
        <mxCell id="nYhCQIgboDFs1SWjqIxP-4" value="Hypervisor" style="rounded=0;whiteSpace=wrap;html=1;fontSize=14;fontStyle=1" vertex="1" parent="1">
          <mxGeometry x="530" y="805" width="500" height="40" as="geometry" />
        </mxCell>
        <mxCell id="nYhCQIgboDFs1SWjqIxP-5" style="rounded=0;orthogonalLoop=1;jettySize=auto;html=1;exitX=0.25;exitY=1;exitDx=0;exitDy=0;entryX=0.5;entryY=0;entryDx=0;entryDy=0;fontSize=14;fontColor=#B89C4A;fillColor=#f8cecc;strokeColor=#000000;" edge="1" parent="1" source="nYhCQIgboDFs1SWjqIxP-7" target="nYhCQIgboDFs1SWjqIxP-23">
          <mxGeometry relative="1" as="geometry" />
        </mxCell>
        <mxCell id="nYhCQIgboDFs1SWjqIxP-6" style="edgeStyle=none;rounded=0;orthogonalLoop=1;jettySize=auto;html=1;exitX=0.75;exitY=1;exitDx=0;exitDy=0;entryX=0.5;entryY=0;entryDx=0;entryDy=0;fontSize=14;fontColor=#B89C4A;fillColor=#f8cecc;strokeColor=#000000;" edge="1" parent="1" source="nYhCQIgboDFs1SWjqIxP-7" target="nYhCQIgboDFs1SWjqIxP-29">
          <mxGeometry relative="1" as="geometry" />
        </mxCell>
        <mxCell id="nYhCQIgboDFs1SWjqIxP-7" value="axnet" style="rounded=1;whiteSpace=wrap;html=1;strokeWidth=1;fillColor=#f8cecc;strokeColor=#b85450;fontSize=14;" vertex="1" parent="1">
          <mxGeometry x="890" y="585" width="130" height="40" as="geometry" />
        </mxCell>
        <mxCell id="nYhCQIgboDFs1SWjqIxP-8" style="edgeStyle=orthogonalEdgeStyle;rounded=0;orthogonalLoop=1;jettySize=auto;html=1;exitX=0.5;exitY=1;exitDx=0;exitDy=0;entryX=0.5;entryY=0;entryDx=0;entryDy=0;fontSize=14;fontColor=#B89C4A;fillColor=#f8cecc;strokeColor=#000000;" edge="1" parent="1" source="nYhCQIgboDFs1SWjqIxP-9" target="nYhCQIgboDFs1SWjqIxP-18">
          <mxGeometry relative="1" as="geometry" />
        </mxCell>
        <mxCell id="nYhCQIgboDFs1SWjqIxP-9" value="axtask" style="rounded=1;whiteSpace=wrap;html=1;strokeWidth=1;fillColor=#f8cecc;strokeColor=#b85450;fontSize=14;" vertex="1" parent="1">
          <mxGeometry x="640" y="585" width="90" height="40" as="geometry" />
        </mxCell>
        <mxCell id="nYhCQIgboDFs1SWjqIxP-10" value="axconfig" style="rounded=1;whiteSpace=wrap;html=1;strokeWidth=1;fillColor=#f8cecc;strokeColor=#b85450;fontSize=14;" vertex="1" parent="1">
          <mxGeometry x="640" y="535" width="90" height="40" as="geometry" />
        </mxCell>
        <mxCell id="nYhCQIgboDFs1SWjqIxP-11" value="axruntime" style="rounded=1;whiteSpace=wrap;html=1;strokeWidth=1;fillColor=#f8cecc;strokeColor=#b85450;fontSize=14;" vertex="1" parent="1">
          <mxGeometry x="540" y="535" width="90" height="40" as="geometry" />
        </mxCell>
        <mxCell id="nYhCQIgboDFs1SWjqIxP-12" value="axhal" style="rounded=1;whiteSpace=wrap;html=1;strokeWidth=1;fillColor=#f8cecc;strokeColor=#b85450;fontSize=14;" vertex="1" parent="1">
          <mxGeometry x="740" y="535" width="90" height="40" as="geometry" />
        </mxCell>
        <mxCell id="nYhCQIgboDFs1SWjqIxP-13" style="edgeStyle=none;rounded=0;orthogonalLoop=1;jettySize=auto;html=1;exitX=0.25;exitY=1;exitDx=0;exitDy=0;fontSize=14;fontColor=#B89C4A;fillColor=#f8cecc;strokeColor=#000000;entryX=0.5;entryY=0;entryDx=0;entryDy=0;" edge="1" parent="1" source="nYhCQIgboDFs1SWjqIxP-14" target="nYhCQIgboDFs1SWjqIxP-21">
          <mxGeometry relative="1" as="geometry" />
        </mxCell>
        <mxCell id="nYhCQIgboDFs1SWjqIxP-14" value="axdriver" style="rounded=1;whiteSpace=wrap;html=1;strokeWidth=1;fillColor=#f8cecc;strokeColor=#b85450;fontSize=14;" vertex="1" parent="1">
          <mxGeometry x="740" y="585" width="140" height="40" as="geometry" />
        </mxCell>
        <mxCell id="nYhCQIgboDFs1SWjqIxP-15" value="allocator" style="rounded=1;whiteSpace=wrap;html=1;strokeColor=#9673a6;strokeWidth=1;fillColor=#e1d5e7;verticalAlign=middle;" vertex="1" parent="1">
          <mxGeometry x="540" y="655" width="90" height="30" as="geometry" />
        </mxCell>
        <mxCell id="nYhCQIgboDFs1SWjqIxP-16" style="edgeStyle=orthogonalEdgeStyle;rounded=0;orthogonalLoop=1;jettySize=auto;html=1;exitX=0.5;exitY=1;exitDx=0;exitDy=0;entryX=0.5;entryY=0;entryDx=0;entryDy=0;fontSize=14;fontColor=#B89C4A;fillColor=#f8cecc;strokeColor=#000000;" edge="1" parent="1" source="nYhCQIgboDFs1SWjqIxP-17" target="nYhCQIgboDFs1SWjqIxP-15">
          <mxGeometry relative="1" as="geometry" />
        </mxCell>
        <mxCell id="nYhCQIgboDFs1SWjqIxP-17" value="axalloc" style="rounded=1;whiteSpace=wrap;html=1;strokeWidth=1;fillColor=#f8cecc;strokeColor=#b85450;fontSize=14;" vertex="1" parent="1">
          <mxGeometry x="540" y="585" width="90" height="40" as="geometry" />
        </mxCell>
        <mxCell id="nYhCQIgboDFs1SWjqIxP-18" value="scheduler" style="rounded=1;whiteSpace=wrap;html=1;strokeColor=#9673a6;strokeWidth=1;fillColor=#e1d5e7;verticalAlign=middle;" vertex="1" parent="1">
          <mxGeometry x="640" y="655" width="90" height="30" as="geometry" />
        </mxCell>
        <mxCell id="nYhCQIgboDFs1SWjqIxP-19" value="page_table" style="rounded=1;whiteSpace=wrap;html=1;strokeColor=#9673a6;strokeWidth=1;fillColor=#e1d5e7;" vertex="1" parent="1">
          <mxGeometry x="915" y="695" width="80" height="30" as="geometry" />
        </mxCell>
        <mxCell id="nYhCQIgboDFs1SWjqIxP-20" value="linked_list" style="rounded=1;whiteSpace=wrap;html=1;strokeColor=#9673a6;strokeWidth=1;fillColor=#e1d5e7;" vertex="1" parent="1">
          <mxGeometry x="540" y="735" width="190" height="30" as="geometry" />
        </mxCell>
        <mxCell id="nYhCQIgboDFs1SWjqIxP-21" value="driver_blk" style="rounded=1;whiteSpace=wrap;html=1;strokeColor=#9673a6;strokeWidth=1;fillColor=#e1d5e7;verticalAlign=middle;" vertex="1" parent="1">
          <mxGeometry x="740" y="655" width="65" height="60" as="geometry" />
        </mxCell>
        <mxCell id="nYhCQIgboDFs1SWjqIxP-22" value="axasync" style="rounded=1;whiteSpace=wrap;html=1;strokeWidth=1;fillColor=#f8cecc;strokeColor=#b85450;dashed=1;opacity=50;fontColor=#666666;fontSize=14;" vertex="1" parent="1">
          <mxGeometry x="940" y="535" width="80" height="40" as="geometry" />
        </mxCell>
        <mxCell id="nYhCQIgboDFs1SWjqIxP-23" value="smoltcp" style="rounded=1;whiteSpace=wrap;html=1;strokeColor=#9673a6;strokeWidth=1;fillColor=#e1d5e7;" vertex="1" parent="1">
          <mxGeometry x="890" y="655" width="60" height="30" as="geometry" />
        </mxCell>
        <mxCell id="nYhCQIgboDFs1SWjqIxP-24" value="buddy" style="rounded=1;whiteSpace=wrap;html=1;strokeColor=#9673a6;strokeWidth=1;fillColor=#e1d5e7;" vertex="1" parent="1">
          <mxGeometry x="540" y="695" width="40" height="30" as="geometry" />
        </mxCell>
        <mxCell id="nYhCQIgboDFs1SWjqIxP-25" value="&lt;font color=&quot;#000000&quot;&gt;slab&lt;/font&gt;" style="rounded=1;whiteSpace=wrap;html=1;strokeColor=#9673a6;strokeWidth=1;fillColor=#e1d5e7;fontColor=#666666;" vertex="1" parent="1">
          <mxGeometry x="590" y="695" width="40" height="30" as="geometry" />
        </mxCell>
        <mxCell id="nYhCQIgboDFs1SWjqIxP-26" value="FIFO" style="rounded=1;whiteSpace=wrap;html=1;strokeColor=#9673a6;strokeWidth=1;fillColor=#e1d5e7;" vertex="1" parent="1">
          <mxGeometry x="640" y="695" width="40" height="30" as="geometry" />
        </mxCell>
        <mxCell id="nYhCQIgboDFs1SWjqIxP-27" value="CFS" style="rounded=1;whiteSpace=wrap;html=1;strokeColor=#9673a6;strokeWidth=1;fillColor=#e1d5e7;" vertex="1" parent="1">
          <mxGeometry x="690" y="695" width="40" height="30" as="geometry" />
        </mxCell>
        <mxCell id="nYhCQIgboDFs1SWjqIxP-28" value="ixgbe" style="rounded=1;whiteSpace=wrap;html=1;strokeColor=#9673a6;strokeWidth=1;fillColor=#e1d5e7;dashed=1;opacity=50;fontColor=#666666;" vertex="1" parent="1">
          <mxGeometry x="840" y="725" width="40" height="40" as="geometry" />
        </mxCell>
        <mxCell id="nYhCQIgboDFs1SWjqIxP-29" value="lwip_rust" style="rounded=1;whiteSpace=wrap;html=1;strokeColor=#9673a6;strokeWidth=1;fillColor=#e1d5e7;dashed=1;opacity=50;fontColor=#666666;" vertex="1" parent="1">
          <mxGeometry x="960" y="655" width="60" height="30" as="geometry" />
        </mxCell>
        <mxCell id="nYhCQIgboDFs1SWjqIxP-30" value="driver_virtio" style="rounded=1;whiteSpace=wrap;html=1;strokeColor=#9673a6;strokeWidth=1;fillColor=#e1d5e7;" vertex="1" parent="1">
          <mxGeometry x="740" y="725" width="90" height="40" as="geometry" />
        </mxCell>
        <mxCell id="nYhCQIgboDFs1SWjqIxP-31" style="edgeStyle=orthogonalEdgeStyle;rounded=0;orthogonalLoop=1;jettySize=auto;html=1;exitX=0.5;exitY=1;exitDx=0;exitDy=0;fontSize=14;fontColor=#B89C4A;fillColor=#e1d5e7;strokeColor=#9673a6;" edge="1" parent="1" source="nYhCQIgboDFs1SWjqIxP-15" target="nYhCQIgboDFs1SWjqIxP-15">
          <mxGeometry relative="1" as="geometry" />
        </mxCell>
        <mxCell id="nYhCQIgboDFs1SWjqIxP-32" value="driver_net" style="rounded=1;whiteSpace=wrap;html=1;strokeColor=#9673a6;strokeWidth=1;fillColor=#e1d5e7;verticalAlign=middle;" vertex="1" parent="1">
          <mxGeometry x="815" y="655" width="65" height="60" as="geometry" />
        </mxCell>
        <mxCell id="nYhCQIgboDFs1SWjqIxP-33" value="axfs" style="rounded=1;whiteSpace=wrap;html=1;strokeWidth=1;fillColor=#f8cecc;strokeColor=#b85450;fontSize=14;" vertex="1" parent="1">
          <mxGeometry x="840" y="535" width="90" height="40" as="geometry" />
        </mxCell>
        <mxCell id="nYhCQIgboDFs1SWjqIxP-34" value="page_table_entry" style="rounded=1;whiteSpace=wrap;html=1;strokeColor=#9673a6;strokeWidth=1;fillColor=#e1d5e7;" vertex="1" parent="1">
          <mxGeometry x="900" y="735" width="110" height="30" as="geometry" />
        </mxCell>
        <mxCell id="nYhCQIgboDFs1SWjqIxP-35" style="edgeStyle=none;rounded=0;orthogonalLoop=1;jettySize=auto;html=1;exitX=0.5;exitY=1;exitDx=0;exitDy=0;entryX=0.375;entryY=0.000;entryDx=0;entryDy=0;fontSize=14;fontColor=#82B366;fillColor=#f8cecc;strokeColor=#000000;entryPerimeter=0;" edge="1" parent="1" source="nYhCQIgboDFs1SWjqIxP-39" target="nYhCQIgboDFs1SWjqIxP-1">
          <mxGeometry relative="1" as="geometry" />
        </mxCell>
        <mxCell id="nYhCQIgboDFs1SWjqIxP-36" style="edgeStyle=orthogonalEdgeStyle;rounded=0;orthogonalLoop=1;jettySize=auto;html=1;exitX=0.5;exitY=1;exitDx=0;exitDy=0;entryX=0.5;entryY=0;entryDx=0;entryDy=0;" edge="1" parent="1" source="nYhCQIgboDFs1SWjqIxP-37" target="nYhCQIgboDFs1SWjqIxP-60">
          <mxGeometry relative="1" as="geometry" />
        </mxCell>
        <mxCell id="nYhCQIgboDFs1SWjqIxP-37" value="&lt;font color=&quot;#82b366&quot;&gt;ArceOS API&lt;/font&gt;" style="rounded=1;whiteSpace=wrap;html=1;strokeColor=#82b366;strokeWidth=1;fontSize=14;fillColor=none;verticalAlign=bottom;spacingBottom=4;fontStyle=1;" vertex="1" parent="1">
          <mxGeometry x="650" y="370" width="260" height="70" as="geometry" />
        </mxCell>
        <mxCell id="nYhCQIgboDFs1SWjqIxP-38" value="&lt;font style=&quot;font-size: 12px;&quot;&gt;arceos_api_posix&lt;/font&gt;" style="rounded=1;whiteSpace=wrap;html=1;strokeColor=#82b366;strokeWidth=1;fontSize=12;fillColor=#d5e8d4;fontColor=#666666;dashed=1;opacity=50;" vertex="1" parent="1">
          <mxGeometry x="790" y="380" width="105" height="30" as="geometry" />
        </mxCell>
        <mxCell id="nYhCQIgboDFs1SWjqIxP-39" value="&lt;font color=&quot;#000000&quot; style=&quot;font-size: 14px;&quot;&gt;arceos_api&lt;/font&gt;" style="rounded=1;whiteSpace=wrap;html=1;strokeColor=#82b366;strokeWidth=1;fontSize=14;fillColor=#d5e8d4;fontColor=#666666;" vertex="1" parent="1">
          <mxGeometry x="665" y="380" width="105" height="30" as="geometry" />
        </mxCell>
        <mxCell id="nYhCQIgboDFs1SWjqIxP-40" value="&lt;font color=&quot;#6c8ebf&quot;&gt;ArceOS ulib&lt;/font&gt;" style="rounded=1;whiteSpace=wrap;html=1;fillColor=none;strokeColor=#6c8ebf;strokeWidth=1;fontStyle=1;fontSize=14;verticalAlign=top;spacingTop=-4;" vertex="1" parent="1">
          <mxGeometry x="610" y="290" width="340" height="70" as="geometry" />
        </mxCell>
        <mxCell id="nYhCQIgboDFs1SWjqIxP-41" style="rounded=0;orthogonalLoop=1;jettySize=auto;html=1;exitX=0.75;exitY=1;exitDx=0;exitDy=0;entryX=0.25;entryY=0;entryDx=0;entryDy=0;" edge="1" parent="1" source="nYhCQIgboDFs1SWjqIxP-42" target="nYhCQIgboDFs1SWjqIxP-39">
          <mxGeometry relative="1" as="geometry" />
        </mxCell>
        <mxCell id="nYhCQIgboDFs1SWjqIxP-42" value="axstd" style="rounded=1;whiteSpace=wrap;html=1;fillColor=#FFE6CC;strokeColor=#DEA584;strokeWidth=1;fontSize=14;" vertex="1" parent="1">
          <mxGeometry x="630" y="320" width="60" height="30" as="geometry" />
        </mxCell>
        <mxCell id="nYhCQIgboDFs1SWjqIxP-43" style="edgeStyle=none;rounded=0;orthogonalLoop=1;jettySize=auto;html=1;exitX=0.5;exitY=1;exitDx=0;exitDy=0;entryX=0.25;entryY=0;entryDx=0;entryDy=0;fontSize=14;fontColor=#82B366;" edge="1" parent="1" source="nYhCQIgboDFs1SWjqIxP-44" target="nYhCQIgboDFs1SWjqIxP-38">
          <mxGeometry relative="1" as="geometry" />
        </mxCell>
        <mxCell id="nYhCQIgboDFs1SWjqIxP-44" value="&lt;font color=&quot;#000000&quot; style=&quot;font-size: 14px;&quot;&gt;axlibc&lt;/font&gt;" style="rounded=1;whiteSpace=wrap;html=1;fillColor=#dae8fc;strokeColor=#6c8ebf;strokeWidth=1;fontColor=#666666;fontSize=14;" vertex="1" parent="1">
          <mxGeometry x="790" y="320" width="60" height="30" as="geometry" />
        </mxCell>
        <mxCell id="nYhCQIgboDFs1SWjqIxP-45" style="rounded=0;orthogonalLoop=1;jettySize=auto;html=1;exitX=0.5;exitY=1;exitDx=0;exitDy=0;entryX=0.75;entryY=0;entryDx=0;entryDy=0;" edge="1" parent="1" source="nYhCQIgboDFs1SWjqIxP-46" target="nYhCQIgboDFs1SWjqIxP-39">
          <mxGeometry relative="1" as="geometry" />
        </mxCell>
        <mxCell id="nYhCQIgboDFs1SWjqIxP-46" value="rust std" style="rounded=1;whiteSpace=wrap;html=1;fillColor=#FFE6CC;strokeColor=#DEA584;strokeWidth=1;fontColor=#666666;opacity=50;dashed=1;fontSize=14;" vertex="1" parent="1">
          <mxGeometry x="710" y="320" width="60" height="30" as="geometry" />
        </mxCell>
        <mxCell id="nYhCQIgboDFs1SWjqIxP-47" style="edgeStyle=none;rounded=0;orthogonalLoop=1;jettySize=auto;html=1;exitX=0.5;exitY=1;exitDx=0;exitDy=0;fontSize=14;fontColor=#F57F10;" edge="1" parent="1" source="nYhCQIgboDFs1SWjqIxP-46" target="nYhCQIgboDFs1SWjqIxP-46">
          <mxGeometry relative="1" as="geometry" />
        </mxCell>
        <mxCell id="nYhCQIgboDFs1SWjqIxP-48" style="rounded=0;orthogonalLoop=1;jettySize=auto;html=1;exitX=0.5;exitY=1;exitDx=0;exitDy=0;entryX=0.5;entryY=0;entryDx=0;entryDy=0;" edge="1" parent="1" source="nYhCQIgboDFs1SWjqIxP-49" target="nYhCQIgboDFs1SWjqIxP-42">
          <mxGeometry relative="1" as="geometry" />
        </mxCell>
        <mxCell id="nYhCQIgboDFs1SWjqIxP-49" value="Rust App" style="rounded=1;whiteSpace=wrap;html=1;strokeWidth=1;fontSize=14;fillColor=#FFE6CC;strokeColor=#DEA584;" vertex="1" parent="1">
          <mxGeometry x="590" y="230" width="80" height="40" as="geometry" />
        </mxCell>
        <mxCell id="nYhCQIgboDFs1SWjqIxP-50" style="rounded=0;orthogonalLoop=1;jettySize=auto;html=1;exitX=0.5;exitY=1;exitDx=0;exitDy=0;entryX=0.5;entryY=0;entryDx=0;entryDy=0;" edge="1" parent="1" source="nYhCQIgboDFs1SWjqIxP-51" target="nYhCQIgboDFs1SWjqIxP-58">
          <mxGeometry relative="1" as="geometry" />
        </mxCell>
        <mxCell id="nYhCQIgboDFs1SWjqIxP-51" value="C App" style="rounded=1;whiteSpace=wrap;html=1;strokeWidth=1;fontSize=14;fillColor=#dae8fc;strokeColor=#6c8ebf;" vertex="1" parent="1">
          <mxGeometry x="890" y="230" width="80" height="40" as="geometry" />
        </mxCell>
        <mxCell id="nYhCQIgboDFs1SWjqIxP-52" style="rounded=0;orthogonalLoop=1;jettySize=auto;html=1;exitX=0.5;exitY=1;exitDx=0;exitDy=0;entryX=0.5;entryY=0;entryDx=0;entryDy=0;" edge="1" parent="1" source="nYhCQIgboDFs1SWjqIxP-53" target="nYhCQIgboDFs1SWjqIxP-46">
          <mxGeometry relative="1" as="geometry" />
        </mxCell>
        <mxCell id="nYhCQIgboDFs1SWjqIxP-53" value="Rust std App" style="rounded=1;whiteSpace=wrap;html=1;strokeWidth=1;fontSize=14;fillColor=#FFE6CC;strokeColor=#DEA584;" vertex="1" parent="1">
          <mxGeometry x="690" y="230" width="80" height="40" as="geometry" />
        </mxCell>
        <mxCell id="nYhCQIgboDFs1SWjqIxP-54" style="rounded=0;orthogonalLoop=1;jettySize=auto;html=1;exitX=0.5;exitY=1;exitDx=0;exitDy=0;entryX=0.5;entryY=0;entryDx=0;entryDy=0;" edge="1" parent="1" source="nYhCQIgboDFs1SWjqIxP-55" target="nYhCQIgboDFs1SWjqIxP-44">
          <mxGeometry relative="1" as="geometry" />
        </mxCell>
        <mxCell id="nYhCQIgboDFs1SWjqIxP-55" value="C App" style="rounded=1;whiteSpace=wrap;html=1;strokeWidth=1;fontSize=14;fillColor=#dae8fc;strokeColor=#6c8ebf;" vertex="1" parent="1">
          <mxGeometry x="790" y="230" width="80" height="40" as="geometry" />
        </mxCell>
        <mxCell id="nYhCQIgboDFs1SWjqIxP-56" style="edgeStyle=none;rounded=0;orthogonalLoop=1;jettySize=auto;html=1;exitX=0.75;exitY=1;exitDx=0;exitDy=0;entryX=0.5;entryY=0;entryDx=0;entryDy=0;fontSize=14;fontColor=#B89C4A;fillColor=#f8cecc;strokeColor=#000000;" edge="1" parent="1" source="nYhCQIgboDFs1SWjqIxP-14" target="nYhCQIgboDFs1SWjqIxP-32">
          <mxGeometry relative="1" as="geometry" />
        </mxCell>
        <mxCell id="nYhCQIgboDFs1SWjqIxP-57" style="rounded=0;orthogonalLoop=1;jettySize=auto;html=1;entryX=0.75;entryY=0;entryDx=0;entryDy=0;exitX=0.25;exitY=1;exitDx=0;exitDy=0;" edge="1" parent="1" source="nYhCQIgboDFs1SWjqIxP-58" target="nYhCQIgboDFs1SWjqIxP-38">
          <mxGeometry relative="1" as="geometry" />
        </mxCell>
        <mxCell id="nYhCQIgboDFs1SWjqIxP-58" value="musl libc" style="rounded=1;whiteSpace=wrap;html=1;fillColor=#dae8fc;strokeColor=#6c8ebf;strokeWidth=1;fontColor=#666666;opacity=50;dashed=1;fontSize=14;" vertex="1" parent="1">
          <mxGeometry x="870" y="320" width="60" height="30" as="geometry" />
        </mxCell>
        <mxCell id="nYhCQIgboDFs1SWjqIxP-59" style="edgeStyle=none;rounded=0;orthogonalLoop=1;jettySize=auto;html=1;entryX=0.625;entryY=0.00;entryDx=0;entryDy=0;fontSize=14;fontColor=#82B366;fillColor=#f8cecc;strokeColor=#000000;entryPerimeter=0;exitX=0.5;exitY=1;exitDx=0;exitDy=0;" edge="1" parent="1" source="nYhCQIgboDFs1SWjqIxP-38" target="nYhCQIgboDFs1SWjqIxP-1">
          <mxGeometry relative="1" as="geometry">
            <mxPoint x="843" y="440" as="sourcePoint" />
            <mxPoint x="725" y="515" as="targetPoint" />
          </mxGeometry>
        </mxCell>
        <mxCell id="nYhCQIgboDFs1SWjqIxP-60" value="&lt;font style=&quot;font-size: 14px;&quot;&gt;axfeat&lt;/font&gt;" style="rounded=1;whiteSpace=wrap;html=1;strokeWidth=1;fontSize=14;fillColor=#f5f5f5;fontColor=#333333;strokeColor=#666666;" vertex="1" parent="1">
          <mxGeometry x="740" y="455" width="80" height="30" as="geometry" />
        </mxCell>
        <mxCell id="nYhCQIgboDFs1SWjqIxP-61" value="feature selection" style="text;html=1;strokeColor=none;fillColor=none;align=center;verticalAlign=middle;whiteSpace=wrap;rounded=0;fontColor=#4D4D4D;" vertex="1" parent="1">
          <mxGeometry x="730" y="485" width="100" height="20" as="geometry" />
        </mxCell>
      </root>
    </mxGraphModel>
  </diagram>
  <diagram id="rNRg7DGD-yfoTQdoVU3l" name="logo">
    <mxGraphModel dx="8420" dy="4203" grid="1" gridSize="10" guides="1" tooltips="1" connect="1" arrows="1" fold="1" page="1" pageScale="1" pageWidth="3300" pageHeight="4681" math="0" shadow="0">
      <root>
        <mxCell id="0" />
        <mxCell id="1" parent="0" />
        <mxCell id="iNPfcZyUfihw2Qzg02Dh-1" value="" style="rounded=1;whiteSpace=wrap;html=1;arcSize=5;fillColor=#0057AD;strokeColor=none;direction=east;container=0;" vertex="1" parent="1">
          <mxGeometry x="360" y="1240" width="560" height="200" as="geometry" />
        </mxCell>
        <mxCell id="iNPfcZyUfihw2Qzg02Dh-2" value="Infisec" style="text;html=1;align=center;verticalAlign=middle;whiteSpace=wrap;rounded=0;fontSize=100;fontColor=#0057ad;fontStyle=1;strokeColor=none;fontFamily=Comic Sans MS;" vertex="1" parent="1">
          <mxGeometry x="560" y="920" width="360" height="90" as="geometry" />
        </mxCell>
        <mxCell id="iNPfcZyUfihw2Qzg02Dh-3" value="OS" style="text;html=1;align=center;verticalAlign=middle;whiteSpace=wrap;rounded=0;fontSize=100;fontColor=#0057ad;fontStyle=1;strokeColor=none;fontFamily=Comic Sans MS;" vertex="1" parent="1">
          <mxGeometry x="580" y="1020" width="290" height="100" as="geometry" />
        </mxCell>
        <mxCell id="iNPfcZyUfihw2Qzg02Dh-4" value="AxVisor" style="text;html=1;align=center;verticalAlign=middle;whiteSpace=wrap;rounded=0;fontSize=96;fontColor=#0057AD;fontStyle=1;strokeColor=none;fontFamily=Comic Sans MS;" vertex="1" parent="1">
          <mxGeometry x="450" y="640" width="485" height="120" as="geometry" />
        </mxCell>
        <mxCell id="iNPfcZyUfihw2Qzg02Dh-5" value="" style="group" vertex="1" connectable="0" parent="1">
          <mxGeometry x="360" y="920" width="200" height="200" as="geometry" />
        </mxCell>
        <mxCell id="iNPfcZyUfihw2Qzg02Dh-6" value="" style="rounded=1;whiteSpace=wrap;html=1;arcSize=5;fillColor=#0057AD;strokeColor=none;direction=east;container=0;" vertex="1" parent="iNPfcZyUfihw2Qzg02Dh-5">
          <mxGeometry width="200" height="200" as="geometry" />
        </mxCell>
        <mxCell id="iNPfcZyUfihw2Qzg02Dh-7" style="edgeStyle=entityRelationEdgeStyle;rounded=0;orthogonalLoop=1;jettySize=auto;html=1;strokeWidth=8;endArrow=none;endFill=0;strokeColor=#FFFFFF;entryX=0;entryY=0.5;entryDx=0;entryDy=0;" edge="1" parent="iNPfcZyUfihw2Qzg02Dh-5" source="iNPfcZyUfihw2Qzg02Dh-8" target="iNPfcZyUfihw2Qzg02Dh-9">
          <mxGeometry relative="1" as="geometry" />
        </mxCell>
        <mxCell id="iNPfcZyUfihw2Qzg02Dh-8" value="" style="ellipse;whiteSpace=wrap;html=1;aspect=fixed;strokeWidth=4;strokeColor=#FFFFFF;direction=east;container=0;" vertex="1" parent="iNPfcZyUfihw2Qzg02Dh-5">
          <mxGeometry x="19.957619047619062" y="40" width="29.387755102040817" height="29.387755102040817" as="geometry" />
        </mxCell>
        <mxCell id="iNPfcZyUfihw2Qzg02Dh-9" value="" style="ellipse;whiteSpace=wrap;html=1;aspect=fixed;strokeWidth=4;strokeColor=#FFFFFF;direction=east;container=0;" vertex="1" parent="iNPfcZyUfihw2Qzg02Dh-5">
          <mxGeometry x="149.99714285714288" y="69.38999999999999" width="29.387755102040817" height="29.387755102040817" as="geometry" />
        </mxCell>
        <mxCell id="iNPfcZyUfihw2Qzg02Dh-10" value="" style="ellipse;whiteSpace=wrap;html=1;aspect=fixed;strokeWidth=6;strokeColor=#FFFFFF;direction=east;container=0;" vertex="1" parent="iNPfcZyUfihw2Qzg02Dh-5">
          <mxGeometry x="149.99714285714288" y="150" width="29.387755102040817" height="29.387755102040817" as="geometry" />
        </mxCell>
        <mxCell id="iNPfcZyUfihw2Qzg02Dh-11" style="edgeStyle=orthogonalEdgeStyle;rounded=0;orthogonalLoop=1;jettySize=auto;html=1;strokeWidth=8;endArrow=none;endFill=0;strokeColor=#FFFFFF;entryX=0;entryY=0.5;entryDx=0;entryDy=0;" edge="1" parent="iNPfcZyUfihw2Qzg02Dh-5" source="iNPfcZyUfihw2Qzg02Dh-12" target="iNPfcZyUfihw2Qzg02Dh-10">
          <mxGeometry relative="1" as="geometry">
            <mxPoint x="124.71952380952382" y="170" as="targetPoint" />
          </mxGeometry>
        </mxCell>
        <mxCell id="iNPfcZyUfihw2Qzg02Dh-12" value="" style="ellipse;whiteSpace=wrap;html=1;aspect=fixed;strokeWidth=4;strokeColor=#FFFFFF;direction=east;container=0;" vertex="1" parent="iNPfcZyUfihw2Qzg02Dh-5">
          <mxGeometry x="19.957619047619062" y="150" width="29.387755102040817" height="29.387755102040817" as="geometry" />
        </mxCell>
        <mxCell id="iNPfcZyUfihw2Qzg02Dh-13" style="edgeStyle=orthogonalEdgeStyle;rounded=0;orthogonalLoop=1;jettySize=auto;html=1;strokeWidth=8;endArrow=oval;endFill=1;strokeColor=#FFFFFF;startArrow=oval;startFill=1;endSize=16;startSize=16;" edge="1" parent="iNPfcZyUfihw2Qzg02Dh-5">
          <mxGeometry relative="1" as="geometry">
            <mxPoint x="104.76190476190476" y="20" as="sourcePoint" />
            <mxPoint x="170" y="20" as="targetPoint" />
          </mxGeometry>
        </mxCell>
        <mxCell id="iNPfcZyUfihw2Qzg02Dh-14" style="edgeStyle=orthogonalEdgeStyle;rounded=1;orthogonalLoop=1;jettySize=auto;html=1;strokeWidth=8;endArrow=oval;endFill=1;strokeColor=#FFFFFF;curved=0;startArrow=oval;startFill=1;endSize=16;startSize=16;" edge="1" parent="iNPfcZyUfihw2Qzg02Dh-5">
          <mxGeometry relative="1" as="geometry">
            <mxPoint x="30" y="120" as="sourcePoint" />
            <mxPoint x="105.67190476190478" y="120" as="targetPoint" />
          </mxGeometry>
        </mxCell>
        <mxCell id="iNPfcZyUfihw2Qzg02Dh-15" value="" style="group" vertex="1" connectable="0" parent="1">
          <mxGeometry x="600" y="440" width="200" height="200" as="geometry" />
        </mxCell>
        <mxCell id="iNPfcZyUfihw2Qzg02Dh-16" value="" style="rounded=1;whiteSpace=wrap;html=1;arcSize=5;fillColor=#0057AD;strokeColor=none;direction=east;container=0;" vertex="1" parent="iNPfcZyUfihw2Qzg02Dh-15">
          <mxGeometry width="200" height="200" as="geometry" />
        </mxCell>
        <mxCell id="iNPfcZyUfihw2Qzg02Dh-17" style="edgeStyle=entityRelationEdgeStyle;rounded=0;orthogonalLoop=1;jettySize=auto;html=1;strokeWidth=8;endArrow=none;endFill=0;strokeColor=#FFFFFF;entryX=0;entryY=0.5;entryDx=0;entryDy=0;" edge="1" parent="iNPfcZyUfihw2Qzg02Dh-15" source="iNPfcZyUfihw2Qzg02Dh-18" target="iNPfcZyUfihw2Qzg02Dh-19">
          <mxGeometry relative="1" as="geometry" />
        </mxCell>
        <mxCell id="iNPfcZyUfihw2Qzg02Dh-18" value="" style="ellipse;whiteSpace=wrap;html=1;aspect=fixed;strokeWidth=4;strokeColor=#FFFFFF;direction=east;container=0;" vertex="1" parent="iNPfcZyUfihw2Qzg02Dh-15">
          <mxGeometry x="19.957619047619062" y="40" width="29.387755102040817" height="29.387755102040817" as="geometry" />
        </mxCell>
        <mxCell id="iNPfcZyUfihw2Qzg02Dh-19" value="" style="ellipse;whiteSpace=wrap;html=1;aspect=fixed;strokeWidth=4;strokeColor=#FFFFFF;direction=east;container=0;" vertex="1" parent="iNPfcZyUfihw2Qzg02Dh-15">
          <mxGeometry x="149.99714285714288" y="69.38999999999999" width="29.387755102040817" height="29.387755102040817" as="geometry" />
        </mxCell>
        <mxCell id="iNPfcZyUfihw2Qzg02Dh-20" value="" style="ellipse;whiteSpace=wrap;html=1;aspect=fixed;strokeWidth=6;strokeColor=#FFFFFF;direction=east;container=0;" vertex="1" parent="iNPfcZyUfihw2Qzg02Dh-15">
          <mxGeometry x="149.99714285714288" y="150" width="29.387755102040817" height="29.387755102040817" as="geometry" />
        </mxCell>
        <mxCell id="iNPfcZyUfihw2Qzg02Dh-21" style="edgeStyle=orthogonalEdgeStyle;rounded=0;orthogonalLoop=1;jettySize=auto;html=1;strokeWidth=8;endArrow=none;endFill=0;strokeColor=#FFFFFF;entryX=0;entryY=0.5;entryDx=0;entryDy=0;" edge="1" parent="iNPfcZyUfihw2Qzg02Dh-15" source="iNPfcZyUfihw2Qzg02Dh-22" target="iNPfcZyUfihw2Qzg02Dh-20">
          <mxGeometry relative="1" as="geometry">
            <mxPoint x="124.71952380952382" y="170" as="targetPoint" />
          </mxGeometry>
        </mxCell>
        <mxCell id="iNPfcZyUfihw2Qzg02Dh-22" value="" style="ellipse;whiteSpace=wrap;html=1;aspect=fixed;strokeWidth=4;strokeColor=#FFFFFF;direction=east;container=0;" vertex="1" parent="iNPfcZyUfihw2Qzg02Dh-15">
          <mxGeometry x="19.957619047619062" y="150" width="29.387755102040817" height="29.387755102040817" as="geometry" />
        </mxCell>
        <mxCell id="iNPfcZyUfihw2Qzg02Dh-23" style="edgeStyle=orthogonalEdgeStyle;rounded=0;orthogonalLoop=1;jettySize=auto;html=1;strokeWidth=8;endArrow=oval;endFill=1;strokeColor=#FFFFFF;startArrow=oval;startFill=1;endSize=16;startSize=16;" edge="1" parent="iNPfcZyUfihw2Qzg02Dh-15">
          <mxGeometry relative="1" as="geometry">
            <mxPoint x="104.76190476190476" y="20" as="sourcePoint" />
            <mxPoint x="170" y="20" as="targetPoint" />
          </mxGeometry>
        </mxCell>
        <mxCell id="iNPfcZyUfihw2Qzg02Dh-24" style="edgeStyle=orthogonalEdgeStyle;rounded=1;orthogonalLoop=1;jettySize=auto;html=1;strokeWidth=8;endArrow=oval;endFill=1;strokeColor=#FFFFFF;curved=0;startArrow=oval;startFill=1;endSize=16;startSize=16;" edge="1" parent="iNPfcZyUfihw2Qzg02Dh-15">
          <mxGeometry relative="1" as="geometry">
            <mxPoint x="30" y="120" as="sourcePoint" />
            <mxPoint x="105.67190476190478" y="120" as="targetPoint" />
          </mxGeometry>
        </mxCell>
        <mxCell id="iNPfcZyUfihw2Qzg02Dh-25" value="Infisec" style="text;html=1;align=center;verticalAlign=middle;whiteSpace=wrap;rounded=0;fontSize=100;fontColor=#FFFFFF;fontStyle=1;strokeColor=none;fontFamily=Comic Sans MS;" vertex="1" parent="1">
          <mxGeometry x="560" y="1240" width="360" height="90" as="geometry" />
        </mxCell>
        <mxCell id="iNPfcZyUfihw2Qzg02Dh-26" value="OS" style="text;html=1;align=center;verticalAlign=middle;whiteSpace=wrap;rounded=0;fontSize=100;fontColor=#FFFFFF;fontStyle=1;strokeColor=none;fontFamily=Comic Sans MS;" vertex="1" parent="1">
          <mxGeometry x="580" y="1340" width="290" height="100" as="geometry" />
        </mxCell>
        <mxCell id="iNPfcZyUfihw2Qzg02Dh-27" style="edgeStyle=entityRelationEdgeStyle;rounded=0;orthogonalLoop=1;jettySize=auto;html=1;strokeWidth=8;endArrow=none;endFill=0;strokeColor=#FFFFFF;entryX=0;entryY=0.5;entryDx=0;entryDy=0;" edge="1" parent="1" source="iNPfcZyUfihw2Qzg02Dh-28" target="iNPfcZyUfihw2Qzg02Dh-29">
          <mxGeometry relative="1" as="geometry" />
        </mxCell>
        <mxCell id="iNPfcZyUfihw2Qzg02Dh-28" value="" style="ellipse;whiteSpace=wrap;html=1;aspect=fixed;strokeWidth=4;strokeColor=#FFFFFF;direction=east;container=0;" vertex="1" parent="1">
          <mxGeometry x="379.95761904761906" y="1280" width="29.387755102040817" height="29.387755102040817" as="geometry" />
        </mxCell>
        <mxCell id="iNPfcZyUfihw2Qzg02Dh-29" value="" style="ellipse;whiteSpace=wrap;html=1;aspect=fixed;strokeWidth=4;strokeColor=#FFFFFF;direction=east;container=0;" vertex="1" parent="1">
          <mxGeometry x="509.9971428571429" y="1309.3899999999999" width="29.387755102040817" height="29.387755102040817" as="geometry" />
        </mxCell>
        <mxCell id="iNPfcZyUfihw2Qzg02Dh-30" value="" style="ellipse;whiteSpace=wrap;html=1;aspect=fixed;strokeWidth=6;strokeColor=#FFFFFF;direction=east;container=0;" vertex="1" parent="1">
          <mxGeometry x="509.9971428571429" y="1390" width="29.387755102040817" height="29.387755102040817" as="geometry" />
        </mxCell>
        <mxCell id="iNPfcZyUfihw2Qzg02Dh-31" style="edgeStyle=orthogonalEdgeStyle;rounded=0;orthogonalLoop=1;jettySize=auto;html=1;strokeWidth=8;endArrow=none;endFill=0;strokeColor=#FFFFFF;entryX=0;entryY=0.5;entryDx=0;entryDy=0;" edge="1" parent="1" source="iNPfcZyUfihw2Qzg02Dh-32" target="iNPfcZyUfihw2Qzg02Dh-30">
          <mxGeometry relative="1" as="geometry">
            <mxPoint x="484.7195238095238" y="1410" as="targetPoint" />
          </mxGeometry>
        </mxCell>
        <mxCell id="iNPfcZyUfihw2Qzg02Dh-32" value="" style="ellipse;whiteSpace=wrap;html=1;aspect=fixed;strokeWidth=4;strokeColor=#FFFFFF;direction=east;container=0;" vertex="1" parent="1">
          <mxGeometry x="379.95761904761906" y="1390" width="29.387755102040817" height="29.387755102040817" as="geometry" />
        </mxCell>
        <mxCell id="iNPfcZyUfihw2Qzg02Dh-33" style="edgeStyle=orthogonalEdgeStyle;rounded=0;orthogonalLoop=1;jettySize=auto;html=1;strokeWidth=8;endArrow=oval;endFill=1;strokeColor=#FFFFFF;startArrow=oval;startFill=1;endSize=16;startSize=16;" edge="1" parent="1">
          <mxGeometry relative="1" as="geometry">
            <mxPoint x="464.76190476190476" y="1260" as="sourcePoint" />
            <mxPoint x="530" y="1260" as="targetPoint" />
          </mxGeometry>
        </mxCell>
        <mxCell id="iNPfcZyUfihw2Qzg02Dh-34" style="edgeStyle=orthogonalEdgeStyle;rounded=1;orthogonalLoop=1;jettySize=auto;html=1;strokeWidth=8;endArrow=oval;endFill=1;strokeColor=#FFFFFF;curved=0;startArrow=oval;startFill=1;endSize=16;startSize=16;" edge="1" parent="1">
          <mxGeometry relative="1" as="geometry">
            <mxPoint x="390" y="1360" as="sourcePoint" />
            <mxPoint x="465.6719047619048" y="1360" as="targetPoint" />
          </mxGeometry>
        </mxCell>
        <mxCell id="iNPfcZyUfihw2Qzg02Dh-35" value="" style="rounded=1;html=1;arcSize=5;fillColor=none;strokeColor=#0057AD;direction=east;container=0;strokeWidth=2;whiteSpace=wrap;" vertex="1" parent="1">
          <mxGeometry x="360" y="1520" width="560" height="200" as="geometry" />
        </mxCell>
        <mxCell id="iNPfcZyUfihw2Qzg02Dh-36" value="Infisec" style="text;html=1;align=center;verticalAlign=middle;rounded=0;fontSize=100;fontColor=#0057AD;fontStyle=1;strokeColor=none;fontFamily=Comic Sans MS;whiteSpace=wrap;" vertex="1" parent="1">
          <mxGeometry x="560" y="1520" width="360" height="90" as="geometry" />
        </mxCell>
        <mxCell id="iNPfcZyUfihw2Qzg02Dh-37" value="OS" style="text;html=1;align=center;verticalAlign=middle;rounded=0;fontSize=100;fontColor=#0057AD;fontStyle=1;strokeColor=none;fontFamily=Comic Sans MS;whiteSpace=wrap;" vertex="1" parent="1">
          <mxGeometry x="580" y="1620" width="290" height="100" as="geometry" />
        </mxCell>
        <mxCell id="iNPfcZyUfihw2Qzg02Dh-38" style="edgeStyle=entityRelationEdgeStyle;rounded=0;orthogonalLoop=1;jettySize=auto;html=1;strokeWidth=8;endArrow=none;endFill=0;strokeColor=#0057AD;entryX=0;entryY=0.5;entryDx=0;entryDy=0;fontColor=#0057AD;" edge="1" parent="1" source="iNPfcZyUfihw2Qzg02Dh-39" target="iNPfcZyUfihw2Qzg02Dh-40">
          <mxGeometry relative="1" as="geometry" />
        </mxCell>
        <mxCell id="iNPfcZyUfihw2Qzg02Dh-39" value="" style="ellipse;html=1;aspect=fixed;strokeWidth=4;strokeColor=#0057AD;direction=east;container=0;fontColor=#0057AD;fillColor=#0057AD;whiteSpace=wrap;" vertex="1" parent="1">
          <mxGeometry x="379.95761904761906" y="1560" width="29.387755102040817" height="29.387755102040817" as="geometry" />
        </mxCell>
        <mxCell id="iNPfcZyUfihw2Qzg02Dh-40" value="" style="ellipse;html=1;aspect=fixed;strokeWidth=4;strokeColor=#0057AD;direction=east;container=0;fontColor=#0057AD;fillColor=#0057AD;whiteSpace=wrap;" vertex="1" parent="1">
          <mxGeometry x="509.9971428571429" y="1589.3899999999999" width="29.387755102040817" height="29.387755102040817" as="geometry" />
        </mxCell>
        <mxCell id="iNPfcZyUfihw2Qzg02Dh-41" value="" style="ellipse;html=1;aspect=fixed;strokeWidth=6;strokeColor=#0057AD;direction=east;container=0;fontColor=#0057AD;fillColor=#0057AD;whiteSpace=wrap;" vertex="1" parent="1">
          <mxGeometry x="509.9971428571429" y="1670" width="29.387755102040817" height="29.387755102040817" as="geometry" />
        </mxCell>
        <mxCell id="iNPfcZyUfihw2Qzg02Dh-42" style="edgeStyle=orthogonalEdgeStyle;rounded=0;orthogonalLoop=1;jettySize=auto;html=1;strokeWidth=8;endArrow=none;endFill=0;strokeColor=#0057AD;entryX=0;entryY=0.5;entryDx=0;entryDy=0;fontColor=#0057AD;" edge="1" parent="1" source="iNPfcZyUfihw2Qzg02Dh-43" target="iNPfcZyUfihw2Qzg02Dh-41">
          <mxGeometry relative="1" as="geometry">
            <mxPoint x="484.7195238095238" y="1690" as="targetPoint" />
          </mxGeometry>
        </mxCell>
        <mxCell id="iNPfcZyUfihw2Qzg02Dh-43" value="" style="ellipse;html=1;aspect=fixed;strokeWidth=4;strokeColor=#0057AD;direction=east;container=0;fontColor=#0057AD;fillColor=#0057AD;whiteSpace=wrap;" vertex="1" parent="1">
          <mxGeometry x="379.95761904761906" y="1670" width="29.387755102040817" height="29.387755102040817" as="geometry" />
        </mxCell>
        <mxCell id="iNPfcZyUfihw2Qzg02Dh-44" style="edgeStyle=orthogonalEdgeStyle;rounded=0;orthogonalLoop=1;jettySize=auto;html=1;strokeWidth=8;endArrow=oval;endFill=1;strokeColor=#0057AD;startArrow=oval;startFill=1;endSize=16;startSize=16;fontColor=#0057AD;" edge="1" parent="1">
          <mxGeometry relative="1" as="geometry">
            <mxPoint x="464.76190476190476" y="1540" as="sourcePoint" />
            <mxPoint x="530" y="1540" as="targetPoint" />
          </mxGeometry>
        </mxCell>
        <mxCell id="iNPfcZyUfihw2Qzg02Dh-45" style="edgeStyle=orthogonalEdgeStyle;rounded=1;orthogonalLoop=1;jettySize=auto;html=1;strokeWidth=8;endArrow=oval;endFill=1;strokeColor=#0057AD;curved=0;startArrow=oval;startFill=1;endSize=16;startSize=16;fontColor=#0057AD;" edge="1" parent="1">
          <mxGeometry relative="1" as="geometry">
            <mxPoint x="390" y="1640" as="sourcePoint" />
            <mxPoint x="465.6719047619048" y="1640" as="targetPoint" />
          </mxGeometry>
        </mxCell>
        <mxCell id="iNPfcZyUfihw2Qzg02Dh-46" value="&amp;nbsp;nf sec" style="text;html=1;align=center;verticalAlign=middle;whiteSpace=wrap;rounded=0;fontSize=100;fontColor=#0057ad;fontStyle=1;strokeColor=none;fontFamily=Comic Sans MS;" vertex="1" parent="1">
          <mxGeometry x="1400" y="440" width="360" height="80" as="geometry" />
        </mxCell>
        <mxCell id="iNPfcZyUfihw2Qzg02Dh-47" value="OS" style="text;html=1;align=center;verticalAlign=middle;whiteSpace=wrap;rounded=0;fontSize=100;fontColor=#0057ad;fontStyle=1;strokeColor=none;fontFamily=Comic Sans MS;" vertex="1" parent="1">
          <mxGeometry x="1510" y="520" width="210" height="120" as="geometry" />
        </mxCell>
        <mxCell id="iNPfcZyUfihw2Qzg02Dh-48" value="" style="endArrow=oval;html=1;rounded=0;endFill=1;strokeWidth=12;strokeColor=#0057AD;startSize=6;endSize=12;" edge="1" parent="1">
          <mxGeometry width="50" height="50" relative="1" as="geometry">
            <mxPoint x="1579.5" y="550" as="sourcePoint" />
            <mxPoint x="1580" y="450" as="targetPoint" />
          </mxGeometry>
        </mxCell>
        <mxCell id="iNPfcZyUfihw2Qzg02Dh-49" value="" style="endArrow=oval;html=1;rounded=0;endFill=1;strokeWidth=12;strokeColor=#0057AD;startSize=12;endSize=12;startArrow=oval;startFill=1;" edge="1" parent="1">
          <mxGeometry width="50" height="50" relative="1" as="geometry">
            <mxPoint x="1430" y="530" as="sourcePoint" />
            <mxPoint x="1430.5" y="450" as="targetPoint" />
          </mxGeometry>
        </mxCell>
        <mxCell id="iNPfcZyUfihw2Qzg02Dh-50" value="" style="endArrow=oval;html=1;rounded=0;endFill=1;strokeWidth=12;strokeColor=#0057AD;startSize=12;endSize=12;startArrow=oval;startFill=1;entryX=0;entryY=0.5;entryDx=0;entryDy=0;" edge="1" parent="1">
          <mxGeometry width="50" height="50" relative="1" as="geometry">
            <mxPoint x="1430" y="600" as="sourcePoint" />
            <mxPoint x="1510" y="600" as="targetPoint" />
          </mxGeometry>
        </mxCell>
      </root>
    </mxGraphModel>
  </diagram>
</mxfile>
